<?xml version="1.0" encoding="utf-8"?>
<!-- Generator: Adobe Illustrator 15.1.0, SVG Export Plug-In  -->
<!DOCTYPE svg PUBLIC "-//W3C//DTD SVG 1.1//EN" "http://www.w3.org/Graphics/SVG/1.1/DTD/svg11.dtd" [
	<!ENTITY ns_flows "http://ns.adobe.com/Flows/1.0/">
]>
<svg version="1.1"
	 xmlns="http://www.w3.org/2000/svg" xmlns:xlink="http://www.w3.org/1999/xlink" xmlns:a="http://ns.adobe.com/AdobeSVGViewerExtensions/3.0/"
	 x="0px" y="0px" width="92px" height="22px" viewBox="0 0 92 22" overflow="visible" enable-background="new 0 0 92 22"
	 xml:space="preserve">
<defs>
</defs>
<path fill-rule="evenodd" clip-rule="evenodd" fill="#FFFFFF" d="M75.981,0.738c0-0.194-0.028-0.692-0.609-0.683
	c-0.59,0-4.474,0.203-4.741,0.23c-0.276,0.019-0.479,0.295-0.009,0.333c0.471,0.046,2.546,0.212,2.546,3.625
	c0,0.23,0.019,13.229-0.01,11.226c0.056,4.151-1.55,5.635-3.339,5.635c-2.804-0.008-4.299-3.375-4.299-6.595
	c0-3.57,1.993-5.931,4.114-5.811c2.896,0.166,3.515,2.546,3.523,6.761l0.019-7.001c0.01,0.849,0.01,0.978-0.378,0.683
	C72.485,8.892,71,7.979,69.137,7.97c-3.054-0.009-6.798,2.168-6.798,6.734c0,4.833,3.422,7.139,6.982,7.139
	c1.725,0,2.951-0.775,3.395-1.041c0.489-0.305,0.442-0.287,0.535,0.166c0.073,0.34,0.027,0.959,0.903,0.875
	c0.987-0.102,3.275-0.387,3.755-0.488c0.461-0.092,0.351-0.387-0.064-0.434c-0.286-0.037-1.863,0.146-1.863-4.75
	C75.981,11.272,75.981,0.738,75.981,0.738L75.981,0.738z"/>
<path fill-rule="evenodd" clip-rule="evenodd" fill="#FFFFFF" d="M75.981,0.738c0-0.194-0.028-0.692-0.609-0.683
	c-0.59,0-4.474,0.203-4.741,0.23c-0.276,0.019-0.479,0.295-0.009,0.333c0.471,0.046,2.546,0.212,2.546,3.625
	c0,0.23,0.019,13.229-0.01,11.226c0.056,4.151-1.55,5.635-3.339,5.635c-2.804-0.008-4.299-3.375-4.299-6.595
	c0-3.57,1.993-5.931,4.114-5.811c2.896,0.166,3.515,2.546,3.523,6.761l0.019-7.001c0.01,0.849,0.01,0.978-0.378,0.683
	C72.485,8.892,71,7.979,69.137,7.97c-3.054-0.009-6.798,2.168-6.798,6.734c0,4.833,3.422,7.139,6.982,7.139
	c1.725,0,2.951-0.775,3.395-1.041c0.489-0.305,0.442-0.287,0.535,0.166c0.073,0.34,0.027,0.959,0.903,0.875
	c0.987-0.102,3.275-0.387,3.755-0.488c0.461-0.092,0.351-0.387-0.064-0.434c-0.286-0.037-1.863,0.146-1.863-4.75
	C75.981,11.272,75.981,0.738,75.981,0.738L75.981,0.738z"/>
<path fill-rule="evenodd" clip-rule="evenodd" fill="#FFFFFF" d="M15.672,1.024c0.24,0.083,0.987,0.369,1.218-0.185
	c0.24-0.554,0.083-0.175,0.166-0.36c0.12-0.276,0.673-0.507,0.775,0.139c0.11,0.646,0.489,6.199,0.507,6.494
	c0.037,0.655-0.849,0.72-0.895,0.074c-0.064-0.858-1.78-6.494-6.466-6.401C6.798,0.876,4.049,5.701,4.215,11.945
	c0.147,5.839,2.961,9.058,7.583,8.966c4.446-0.092,5.682-3.477,6.337-5.543c0.268-0.858,1.07-0.618,0.876,0.166
	c-0.821,3.45-3.432,6.374-8.145,6.467h-0.35C5.461,21.923,0.135,18.054,0,11.318V10.83C0.113,4.037,5.589,0.108,10.995,0h0.39
	C13.507,0.041,14.897,0.754,15.672,1.024L15.672,1.024z"/>
<path fill-rule="evenodd" clip-rule="evenodd" fill="#FFFFFF" d="M15.672,1.024c0.24,0.083,0.987,0.369,1.218-0.185
	c0.24-0.554,0.083-0.175,0.166-0.36c0.12-0.276,0.673-0.507,0.775,0.139c0.11,0.646,0.489,6.199,0.507,6.494
	c0.037,0.655-0.849,0.72-0.895,0.074c-0.064-0.858-1.78-6.494-6.466-6.401C6.798,0.876,4.049,5.701,4.215,11.945
	c0.147,5.839,2.961,9.058,7.583,8.966c4.446-0.092,5.682-3.477,6.337-5.543c0.268-0.858,1.07-0.618,0.876,0.166
	c-0.821,3.45-3.432,6.374-8.145,6.467h-0.35C5.461,21.923,0.135,18.054,0,11.318V10.83C0.113,4.037,5.589,0.108,10.995,0h0.39
	C13.507,0.041,14.897,0.754,15.672,1.024L15.672,1.024z"/>
<polygon fill-rule="evenodd" clip-rule="evenodd" fill="#FFFFFF" points="81.036,6.872 81.036,0.138 77.669,0.138 77.669,6.872 
	81.036,6.872 "/>
<polygon fill-rule="evenodd" clip-rule="evenodd" fill="#FFFFFF" points="81.036,6.872 81.036,0.138 77.669,0.138 77.669,6.872 
	81.036,6.872 "/>
<polygon fill-rule="evenodd" clip-rule="evenodd" fill="#FFFFFF" points="81.036,6.872 81.036,0.138 77.669,0.138 77.669,6.872 
	81.036,6.872 "/>
<path fill-rule="evenodd" clip-rule="evenodd" fill="#FFFFFF" d="M86.856,3.505l-0.073-0.037c-0.111-0.055-0.093-0.147-0.074-0.212
	c0.019-0.065,0.203-0.72,0.203-0.72s-0.489,0.111-0.608,0.129c-0.093,0.009-0.12-0.037-0.148-0.092
	c-0.027-0.064-0.147-0.36-0.147-0.36s-0.608,0.673-0.618,0.683c-0.119,0.111-0.23,0.027-0.212-0.102
	c0.019-0.111,0.313-1.448,0.313-1.448s-0.322,0.194-0.434,0.258c-0.102,0.064-0.156,0.046-0.212-0.055
	c-0.056-0.102-0.452-0.895-0.452-0.895s-0.396,0.793-0.452,0.895c-0.064,0.101-0.119,0.12-0.221,0.055
	c-0.111-0.064-0.434-0.258-0.434-0.258s0.295,1.337,0.313,1.448c0.019,0.129-0.093,0.212-0.203,0.102
	c-0.019-0.009-0.618-0.683-0.618-0.683s-0.12,0.295-0.156,0.36c-0.028,0.055-0.056,0.102-0.147,0.092
	c-0.12-0.019-0.628-0.129-0.628-0.129s0.203,0.655,0.222,0.72c0.019,0.064,0.037,0.157-0.074,0.212l-0.073,0.037H86.856
	L86.856,3.505z"/>
<path fill-rule="evenodd" clip-rule="evenodd" fill="#FFFFFF" d="M81.922,3.505l-0.111,0.055c0,0,1.145,0.987,1.181,1.024
	c0.037,0.037,0.111,0.064,0.056,0.24c-0.056,0.166-0.139,0.397-0.139,0.397s1.062-0.212,1.172-0.24C84.2,4.954,84.292,5,84.292,5.11
	s-0.046,1.245-0.046,1.245h0.286c0,0-0.046-1.134-0.046-1.245s0.102-0.157,0.212-0.129c0.11,0.028,1.172,0.24,1.172,0.24
	s-0.083-0.231-0.139-0.397c-0.056-0.175,0.019-0.203,0.056-0.24c0.046-0.037,1.189-1.024,1.189-1.024l-0.12-0.055H81.922
	L81.922,3.505z"/>
<path fill-rule="evenodd" clip-rule="evenodd" fill="#FFFFFF" d="M81.922,3.505l-0.111,0.055c0,0,1.145,0.987,1.181,1.024
	c0.037,0.037,0.111,0.064,0.056,0.24c-0.056,0.166-0.139,0.397-0.139,0.397s1.062-0.212,1.172-0.24C84.2,4.954,84.292,5,84.292,5.11
	s-0.046,1.245-0.046,1.245h0.286c0,0-0.046-1.134-0.046-1.245s0.102-0.157,0.212-0.129c0.11,0.028,1.172,0.24,1.172,0.24
	s-0.083-0.231-0.139-0.397c-0.056-0.175,0.019-0.203,0.056-0.24c0.046-0.037,1.189-1.024,1.189-1.024l-0.12-0.055H81.922
	L81.922,3.505z"/>
<path fill-rule="evenodd" clip-rule="evenodd" fill="#FFFFFF" d="M84.532,6.355c0,0-0.046-1.134-0.046-1.245
	s0.102-0.157,0.212-0.129c0.11,0.028,1.172,0.24,1.172,0.24s-0.083-0.231-0.139-0.397c-0.056-0.175,0.019-0.203,0.056-0.24
	c0.046-0.037,1.189-1.024,1.189-1.024l-0.193-0.092c-0.111-0.055-0.093-0.147-0.074-0.212c0.019-0.065,0.203-0.72,0.203-0.72
	s-0.489,0.111-0.608,0.129c-0.093,0.009-0.12-0.037-0.148-0.092c-0.027-0.064-0.147-0.36-0.147-0.36s-0.608,0.673-0.618,0.683
	c-0.119,0.111-0.23,0.027-0.212-0.102c0.019-0.111,0.313-1.448,0.313-1.448s-0.322,0.194-0.434,0.258
	c-0.102,0.064-0.156,0.046-0.212-0.055c-0.056-0.102-0.452-0.895-0.452-0.895s-0.396,0.793-0.452,0.895
	c-0.064,0.101-0.119,0.12-0.221,0.055c-0.111-0.064-0.434-0.258-0.434-0.258s0.295,1.337,0.313,1.448
	c0.019,0.129-0.093,0.212-0.203,0.102c-0.019-0.009-0.618-0.683-0.618-0.683s-0.12,0.295-0.156,0.36
	c-0.028,0.055-0.056,0.102-0.147,0.092c-0.12-0.019-0.628-0.129-0.628-0.129s0.203,0.655,0.222,0.72
	c0.019,0.064,0.037,0.157-0.074,0.212l-0.185,0.092c0,0,1.145,0.987,1.181,1.024c0.037,0.037,0.111,0.064,0.056,0.24
	c-0.056,0.166-0.139,0.397-0.139,0.397s1.062-0.212,1.172-0.24C84.2,4.954,84.292,5,84.292,5.11s-0.046,1.245-0.046,1.245H84.532
	L84.532,6.355z"/>
<path fill-rule="evenodd" clip-rule="evenodd" fill="#FFFFFF" d="M84.532,6.355c0,0-0.046-1.134-0.046-1.245
	s0.102-0.157,0.212-0.129c0.11,0.028,1.172,0.24,1.172,0.24s-0.083-0.231-0.139-0.397c-0.056-0.175,0.019-0.203,0.056-0.24
	c0.046-0.037,1.189-1.024,1.189-1.024l-0.193-0.092c-0.111-0.055-0.093-0.147-0.074-0.212c0.019-0.065,0.203-0.72,0.203-0.72
	s-0.489,0.111-0.608,0.129c-0.093,0.009-0.12-0.037-0.148-0.092c-0.027-0.064-0.147-0.36-0.147-0.36s-0.608,0.673-0.618,0.683
	c-0.119,0.111-0.23,0.027-0.212-0.102c0.019-0.111,0.313-1.448,0.313-1.448s-0.322,0.194-0.434,0.258
	c-0.102,0.064-0.156,0.046-0.212-0.055c-0.056-0.102-0.452-0.895-0.452-0.895s-0.396,0.793-0.452,0.895
	c-0.064,0.101-0.119,0.12-0.221,0.055c-0.111-0.064-0.434-0.258-0.434-0.258s0.295,1.337,0.313,1.448
	c0.019,0.129-0.093,0.212-0.203,0.102c-0.019-0.009-0.618-0.683-0.618-0.683s-0.12,0.295-0.156,0.36
	c-0.028,0.055-0.056,0.102-0.147,0.092c-0.12-0.019-0.628-0.129-0.628-0.129s0.203,0.655,0.222,0.72
	c0.019,0.064,0.037,0.157-0.074,0.212l-0.185,0.092c0,0,1.145,0.987,1.181,1.024c0.037,0.037,0.111,0.064,0.056,0.24
	c-0.056,0.166-0.139,0.397-0.139,0.397s1.062-0.212,1.172-0.24C84.2,4.954,84.292,5,84.292,5.11s-0.046,1.245-0.046,1.245H84.532
	L84.532,6.355z"/>
<path fill-rule="evenodd" clip-rule="evenodd" fill="#FFFFFF" d="M84.532,6.355c0,0-0.046-1.134-0.046-1.245
	s0.102-0.157,0.212-0.129c0.11,0.028,1.172,0.24,1.172,0.24s-0.083-0.231-0.139-0.397c-0.056-0.175,0.019-0.203,0.056-0.24
	c0.046-0.037,1.189-1.024,1.189-1.024l-0.193-0.092c-0.111-0.055-0.093-0.147-0.074-0.212c0.019-0.065,0.203-0.72,0.203-0.72
	s-0.489,0.111-0.608,0.129c-0.093,0.009-0.12-0.037-0.148-0.092c-0.027-0.064-0.147-0.36-0.147-0.36s-0.608,0.673-0.618,0.683
	c-0.119,0.111-0.23,0.027-0.212-0.102c0.019-0.111,0.313-1.448,0.313-1.448s-0.322,0.194-0.434,0.258
	c-0.102,0.064-0.156,0.046-0.212-0.055c-0.056-0.102-0.452-0.895-0.452-0.895s-0.396,0.793-0.452,0.895
	c-0.064,0.101-0.119,0.12-0.221,0.055c-0.111-0.064-0.434-0.258-0.434-0.258s0.295,1.337,0.313,1.448
	c0.019,0.129-0.093,0.212-0.203,0.102c-0.019-0.009-0.618-0.683-0.618-0.683s-0.12,0.295-0.156,0.36
	c-0.028,0.055-0.056,0.102-0.147,0.092c-0.12-0.019-0.628-0.129-0.628-0.129s0.203,0.655,0.222,0.72
	c0.019,0.064,0.037,0.157-0.074,0.212l-0.185,0.092c0,0,1.145,0.987,1.181,1.024c0.037,0.037,0.111,0.064,0.056,0.24
	c-0.056,0.166-0.139,0.397-0.139,0.397s1.062-0.212,1.172-0.24C84.2,4.954,84.292,5,84.292,5.11s-0.046,1.245-0.046,1.245H84.532
	L84.532,6.355z"/>
<polygon fill-rule="evenodd" clip-rule="evenodd" fill="#FFFFFF" points="91.128,6.872 91.128,0.138 87.761,0.138 87.761,6.872 
	91.128,6.872 "/>
<polygon fill-rule="evenodd" clip-rule="evenodd" fill="#FFFFFF" points="91.128,6.872 91.128,0.138 87.761,0.138 87.761,6.872 
	91.128,6.872 "/>
<polygon fill-rule="evenodd" clip-rule="evenodd" fill="#FFFFFF" points="91.128,6.872 91.128,0.138 87.761,0.138 87.761,6.872 
	91.128,6.872 "/>
<path fill-rule="evenodd" clip-rule="evenodd" fill="#FFFFFF" d="M26.861,11.807c0.027,1.402-0.222,1.826-1.089,2.25
	c-0.793,0.397-3.007,0.72-3.293,0.784c-0.895,0.212-3.413,0.849-3.357,3.487c0.055,2.602,2.629,3.486,4.427,3.439
	c1.744-0.045,2.768-0.793,3.229-1.162c0.267-0.221,0.24-0.166,0.47,0.084c0.249,0.285,1.116,1.115,3.118,1.107
	c2.03-0.01,2.334-0.969,2.454-1.273c0.157-0.396-0.268-0.609-0.415-0.25c-0.258,0.6-0.775,0.758-1.125,0.758
	c-0.397-0.01-1.55-0.102-1.559-3.072c0,0,0-6.134,0-6.494c0-2.002-1.522-3.634-5.562-3.634c-4.344,0-4.372,2.14-4.4,2.675
	c-0.027,0.6,0.286,1.236,1.375,1.236c0.987,0,1.218-1.07,1.365-1.476c0.138-0.424,0.175-1.752,1.928-1.725
	c1.503,0,2.426,1.329,2.426,3.21l0.037,5.673c0,1.982-1.024,3.57-2.537,3.57c-1.817-0.01-2.26-1.514-2.278-2.232
	c-0.019-0.711,0.369-2.205,2.158-3.238c0,0,0.84-0.535,2.426-1.144c0.147-0.037,0.212-0.009,0.212,0.333L26.861,11.807
	L26.861,11.807z"/>
<path fill-rule="evenodd" clip-rule="evenodd" fill="#FFFFFF" d="M26.861,11.807c0.027,1.402-0.222,1.826-1.089,2.25
	c-0.793,0.397-3.007,0.72-3.293,0.784c-0.895,0.212-3.413,0.849-3.357,3.487c0.055,2.602,2.629,3.486,4.427,3.439
	c1.744-0.045,2.768-0.793,3.229-1.162c0.267-0.221,0.24-0.166,0.47,0.084c0.249,0.285,1.116,1.115,3.118,1.107
	c2.03-0.01,2.334-0.969,2.454-1.273c0.157-0.396-0.268-0.609-0.415-0.25c-0.258,0.6-0.775,0.758-1.125,0.758
	c-0.397-0.01-1.55-0.102-1.559-3.072c0,0,0-6.134,0-6.494c0-2.002-1.522-3.634-5.562-3.634c-4.344,0-4.372,2.14-4.4,2.675
	c-0.027,0.6,0.286,1.236,1.375,1.236c0.987,0,1.218-1.07,1.365-1.476c0.138-0.424,0.175-1.752,1.928-1.725
	c1.503,0,2.426,1.329,2.426,3.21l0.037,5.673c0,1.982-1.024,3.57-2.537,3.57c-1.817-0.01-2.26-1.514-2.278-2.232
	c-0.019-0.711,0.369-2.205,2.158-3.238c0,0,0.84-0.535,2.426-1.144c0.147-0.037,0.212-0.009,0.212,0.333L26.861,11.807
	L26.861,11.807z"/>
<path fill-rule="evenodd" clip-rule="evenodd" fill="#FFFFFF" d="M56.776,11.807c0.027,1.402-0.222,1.826-1.089,2.25
	c-0.793,0.397-3.007,0.72-3.293,0.784c-0.895,0.212-3.413,0.849-3.358,3.487c0.056,2.602,2.63,3.486,4.438,3.439
	c1.744-0.045,2.758-0.793,3.22-1.162c0.268-0.221,0.239-0.166,0.47,0.084c0.249,0.285,1.116,1.115,3.118,1.107
	c2.039-0.01,2.343-0.969,2.454-1.273c0.156-0.396-0.268-0.609-0.415-0.25c-0.259,0.6-0.775,0.758-1.126,0.758
	c-0.388-0.01-1.55-0.102-1.55-3.072c0,0-0.009-6.134-0.009-6.494c0-2.002-1.522-3.634-5.562-3.634c-4.346,0-4.363,2.14-4.4,2.675
	c-0.027,0.6,0.286,1.236,1.384,1.236c0.979,0,1.218-1.07,1.356-1.476c0.139-0.424,0.175-1.752,1.928-1.725
	c1.504,0,2.426,1.329,2.426,3.21l0.037,5.673c0,1.982-1.023,3.57-2.536,3.57c-1.817-0.01-2.261-1.514-2.279-2.232
	c-0.019-0.711,0.369-2.205,2.168-3.238c0,0,0.83-0.535,2.417-1.144c0.147-0.037,0.212-0.009,0.212,0.333L56.776,11.807
	L56.776,11.807z"/>
<path fill-rule="evenodd" clip-rule="evenodd" fill="#FFFFFF" d="M56.776,11.807c0.027,1.402-0.222,1.826-1.089,2.25
	c-0.793,0.397-3.007,0.72-3.293,0.784c-0.895,0.212-3.413,0.849-3.358,3.487c0.056,2.602,2.63,3.486,4.438,3.439
	c1.744-0.045,2.758-0.793,3.22-1.162c0.268-0.221,0.239-0.166,0.47,0.084c0.249,0.285,1.116,1.115,3.118,1.107
	c2.039-0.01,2.343-0.969,2.454-1.273c0.156-0.396-0.268-0.609-0.415-0.25c-0.259,0.6-0.775,0.758-1.126,0.758
	c-0.388-0.01-1.55-0.102-1.55-3.072c0,0-0.009-6.134-0.009-6.494c0-2.002-1.522-3.634-5.562-3.634c-4.346,0-4.363,2.14-4.4,2.675
	c-0.027,0.6,0.286,1.236,1.384,1.236c0.979,0,1.218-1.07,1.356-1.476c0.139-0.424,0.175-1.752,1.928-1.725
	c1.504,0,2.426,1.329,2.426,3.21l0.037,5.673c0,1.982-1.023,3.57-2.536,3.57c-1.817-0.01-2.261-1.514-2.279-2.232
	c-0.019-0.711,0.369-2.205,2.168-3.238c0,0,0.83-0.535,2.417-1.144c0.147-0.037,0.212-0.009,0.212,0.333L56.776,11.807
	L56.776,11.807z"/>
<path fill-rule="evenodd" clip-rule="evenodd" fill="#FFFFFF" d="M86.304,11.807c0.036,1.402-0.222,1.826-1.08,2.25
	c-0.793,0.397-3.016,0.72-3.293,0.784c-0.895,0.212-3.413,0.849-3.357,3.487c0.056,2.602,2.629,3.486,4.428,3.439
	c1.743-0.045,2.768-0.793,3.219-1.162c0.268-0.221,0.25-0.166,0.471,0.084c0.249,0.285,1.116,1.115,3.118,1.107
	c1.899-0.01,2.293-0.844,2.436-1.203v-0.424c-0.102-0.123-0.3-0.117-0.397,0.104c-0.258,0.6-0.766,0.758-1.125,0.758
	c-0.388-0.01-1.54-0.102-1.55-3.072c0,0,0-6.134,0-6.494c0-2.002-1.531-3.634-5.571-3.634c-4.345,0-4.363,2.14-4.391,2.675
	c-0.037,0.6,0.286,1.236,1.374,1.236c0.987,0,1.218-1.07,1.356-1.476c0.147-0.424,0.175-1.752,1.928-1.725
	c1.503,0,2.436,1.329,2.436,3.21l0.027,5.673c0,1.982-1.024,3.57-2.537,3.57c-1.808-0.01-2.26-1.514-2.278-2.232
	c-0.019-0.711,0.378-2.205,2.168-3.238c0,0,0.83-0.535,2.426-1.144c0.139-0.037,0.203-0.009,0.203,0.333L86.304,11.807
	L86.304,11.807z"/>
<path fill-rule="evenodd" clip-rule="evenodd" fill="#FFFFFF" d="M86.304,11.807c0.036,1.402-0.222,1.826-1.08,2.25
	c-0.793,0.397-3.016,0.72-3.293,0.784c-0.895,0.212-3.413,0.849-3.357,3.487c0.056,2.602,2.629,3.486,4.428,3.439
	c1.743-0.045,2.768-0.793,3.219-1.162c0.268-0.221,0.25-0.166,0.471,0.084c0.249,0.285,1.116,1.115,3.118,1.107
	c1.899-0.01,2.293-0.844,2.436-1.203v-0.424c-0.102-0.123-0.3-0.117-0.397,0.104c-0.258,0.6-0.766,0.758-1.125,0.758
	c-0.388-0.01-1.54-0.102-1.55-3.072c0,0,0-6.134,0-6.494c0-2.002-1.531-3.634-5.571-3.634c-4.345,0-4.363,2.14-4.391,2.675
	c-0.037,0.6,0.286,1.236,1.374,1.236c0.987,0,1.218-1.07,1.356-1.476c0.147-0.424,0.175-1.752,1.928-1.725
	c1.503,0,2.436,1.329,2.436,3.21l0.027,5.673c0,1.982-1.024,3.57-2.537,3.57c-1.808-0.01-2.26-1.514-2.278-2.232
	c-0.019-0.711,0.378-2.205,2.168-3.238c0,0,0.83-0.535,2.426-1.144c0.139-0.037,0.203-0.009,0.203,0.333L86.304,11.807
	L86.304,11.807z"/>
<path fill-rule="evenodd" clip-rule="evenodd" fill="#FFFFFF" d="M43.77,17.812c0,2.232-0.655,2.953-1.412,3.109
	c-0.701,0.139-0.553,0.471-0.221,0.471c0.138,0,5.968,0.008,5.977,0.008c0.489,0,0.831-0.312-0.037-0.516
	c-0.535-0.119-1.411-0.719-1.42-3.523l-0.009-5.185c-0.009-1.236,0.129-4.363-4.742-4.363c-2.49,0-3.948,1.264-4.095,1.375
	c-0.222,0.175-0.314,0.258-0.415-0.074c-0.074-0.258-0.212-0.673-0.286-0.895c-0.074-0.212-0.166-0.396-0.637-0.332
	c-0.47,0.064-3.311,0.517-3.782,0.627c-0.479,0.12-0.351,0.323-0.009,0.378c0.341,0.056,1.873,0.185,1.863,2.832
	s-0.009,5.544-0.009,5.544c0.019,3.191-0.655,3.486-1.245,3.652c-0.775,0.213-0.415,0.479-0.046,0.479c0.009,0,5.737,0,5.885-0.008
	c0.396,0,0.572-0.359-0.221-0.49c-0.766-0.129-1.495-0.58-1.476-3.09c0-0.248,0-3.034-0.009-3.542
	c-0.019-1.329-0.323-5.507,3.441-5.544c2.629-0.083,2.878,2.112,2.896,3.57L43.77,17.812L43.77,17.812z"/>
<path fill-rule="evenodd" clip-rule="evenodd" fill="#FFFFFF" d="M43.77,17.812c0,2.232-0.655,2.953-1.412,3.109
	c-0.701,0.139-0.553,0.471-0.221,0.471c0.138,0,5.968,0.008,5.977,0.008c0.489,0,0.831-0.312-0.037-0.516
	c-0.535-0.119-1.411-0.719-1.42-3.523l-0.009-5.185c-0.009-1.236,0.129-4.363-4.742-4.363c-2.49,0-3.948,1.264-4.095,1.375
	c-0.222,0.175-0.314,0.258-0.415-0.074c-0.074-0.258-0.212-0.673-0.286-0.895c-0.074-0.212-0.166-0.396-0.637-0.332
	c-0.47,0.064-3.311,0.517-3.782,0.627c-0.479,0.12-0.351,0.323-0.009,0.378c0.341,0.056,1.873,0.185,1.863,2.832
	s-0.009,5.544-0.009,5.544c0.019,3.191-0.655,3.486-1.245,3.652c-0.775,0.213-0.415,0.479-0.046,0.479c0.009,0,5.737,0,5.885-0.008
	c0.396,0,0.572-0.359-0.221-0.49c-0.766-0.129-1.495-0.58-1.476-3.09c0-0.248,0-3.034-0.009-3.542
	c-0.019-1.329-0.323-5.507,3.441-5.544c2.629-0.083,2.878,2.112,2.896,3.57L43.77,17.812L43.77,17.812z"/>
</svg>
