<?xml version="1.0" encoding="utf-8"?>
<!-- Generator: Adobe Illustrator 16.2.1, SVG Export Plug-In . SVG Version: 6.00 Build 0)  -->
<!DOCTYPE svg PUBLIC "-//W3C//DTD SVG 1.1//EN" "http://www.w3.org/Graphics/SVG/1.1/DTD/svg11.dtd">
<svg version="1.1" id="Layer_1" xmlns="http://www.w3.org/2000/svg" xmlns:xlink="http://www.w3.org/1999/xlink" x="0px" y="0px"
	 width="121.25px" height="29.75px" viewBox="-14.5 -3.875 121.25 29.75" enable-background="new -14.5 -3.875 121.25 29.75"
	 xml:space="preserve">
<g>
	<path fill="#231F20" d="M84.965-2.35c0-0.253-0.036-0.901-0.793-0.889c-0.768,0-5.818,0.264-6.166,0.299
		c-0.361,0.026-0.625,0.383-0.013,0.432c0.612,0.061,3.312,0.277,3.312,4.716c0,0.299,0.023,17.208-0.013,14.605
		c0.071,5.398-2.018,7.334-4.345,7.334c-3.648-0.015-5.592-4.394-5.592-8.582c0-4.644,2.59-7.716,5.352-7.56
		c3.768,0.215,4.572,3.313,4.584,8.796l0.022-9.106c0.015,1.104,0.015,1.271-0.49,0.887c-0.407-0.322-2.339-1.512-4.763-1.525
		c-3.974-0.01-8.845,2.821-8.845,8.761c0,6.288,4.452,9.287,9.084,9.287c2.243,0,3.839-1.007,4.416-1.354
		c0.635-0.396,0.576-0.374,0.696,0.216c0.096,0.444,0.035,1.247,1.176,1.139c1.283-0.133,4.258-0.504,4.884-0.636
		c0.6-0.119,0.457-0.503-0.084-0.564c-0.371-0.048-2.424,0.193-2.424-6.179C84.965,11.354,84.965-2.35,84.965-2.35L84.965-2.35z"/>
	<path d="M84.965-2.35c0-0.253-0.036-0.901-0.793-0.889c-0.768,0-5.818,0.264-6.166,0.299c-0.361,0.026-0.625,0.383-0.013,0.432
		c0.612,0.061,3.312,0.277,3.312,4.716c0,0.299,0.023,17.208-0.013,14.605c0.071,5.398-2.018,7.334-4.345,7.334
		c-3.648-0.015-5.592-4.394-5.592-8.582c0-4.644,2.59-7.716,5.352-7.56c3.768,0.215,4.572,3.313,4.584,8.796l0.022-9.106
		c0.015,1.104,0.015,1.271-0.49,0.887c-0.407-0.322-2.339-1.512-4.763-1.525c-3.974-0.01-8.845,2.821-8.845,8.761
		c0,6.288,4.452,9.287,9.084,9.287c2.243,0,3.839-1.007,4.416-1.354c0.635-0.396,0.576-0.374,0.696,0.216
		c0.096,0.444,0.035,1.247,1.176,1.139c1.283-0.133,4.258-0.504,4.884-0.636c0.6-0.119,0.457-0.503-0.084-0.564
		c-0.371-0.048-2.424,0.193-2.424-6.179C84.965,11.354,84.965-2.35,84.965-2.35L84.965-2.35z"/>
	<path fill="#231F20" d="M6.51-1.979c0.312,0.106,1.284,0.48,1.584-0.24C8.406-2.94,8.202-2.447,8.311-2.688
		c0.155-0.357,0.875-0.658,1.008,0.181c0.143,0.84,0.636,8.064,0.659,8.447c0.048,0.852-1.104,0.936-1.164,0.097
		C8.73,4.922,6.498-2.411,0.402-2.291c-5.437,0.12-9.013,6.395-8.797,14.521c0.191,7.595,3.852,11.784,9.865,11.662
		c5.784-0.119,7.392-4.522,8.244-7.21c0.349-1.116,1.393-0.804,1.14,0.216c-1.068,4.487-4.463,8.29-10.596,8.412h-0.456
		c-6.576-0.102-13.505-5.135-13.68-13.896v-0.635C-13.731,1.942-6.607-3.171,0.426-3.31h0.507C3.693-3.256,5.501-2.329,6.51-1.979
		L6.51-1.979z"/>
	<path d="M6.51-1.979c0.312,0.106,1.284,0.48,1.584-0.24C8.406-2.94,8.202-2.447,8.311-2.688c0.155-0.357,0.875-0.658,1.008,0.181
		c0.143,0.84,0.636,8.064,0.659,8.447c0.048,0.852-1.104,0.936-1.164,0.097C8.73,4.922,6.498-2.411,0.402-2.291
		c-5.437,0.12-9.013,6.395-8.797,14.521c0.191,7.595,3.852,11.784,9.865,11.662c5.784-0.119,7.392-4.522,8.244-7.21
		c0.349-1.116,1.393-0.804,1.14,0.216c-1.068,4.487-4.463,8.29-10.596,8.412h-0.456c-6.576-0.102-13.505-5.135-13.68-13.896v-0.635
		C-13.731,1.942-6.607-3.171,0.426-3.31h0.507C3.693-3.256,5.501-2.329,6.51-1.979L6.51-1.979z"/>
	<polygon fill="#E8372F" points="91.54,5.629 91.54,-3.129 87.16,-3.129 87.16,5.629 	"/>
	<polygon fill="#E8372F" points="91.54,5.629 91.54,-3.129 87.16,-3.129 87.16,5.629 	"/>
	<polygon fill="#FF0000" points="91.54,5.629 91.54,-3.129 87.16,-3.129 87.16,5.629 	"/>
	<path fill="#E8372F" d="M99.112,1.249l-0.097-0.046c-0.143-0.074-0.119-0.192-0.094-0.277c0.022-0.083,0.262-0.935,0.262-0.935
		s-0.636,0.142-0.791,0.167c-0.119,0.01-0.157-0.048-0.192-0.122c-0.035-0.084-0.189-0.468-0.189-0.468s-0.792,0.877-0.805,0.89
		c-0.154,0.142-0.3,0.035-0.274-0.133c0.023-0.145,0.405-1.885,0.405-1.885s-0.419,0.251-0.565,0.338
		c-0.132,0.083-0.203,0.057-0.274-0.074c-0.073-0.132-0.589-1.165-0.589-1.165l0,0c0,0-0.515,1.032-0.587,1.165
		c-0.084,0.131-0.158,0.157-0.29,0.073c-0.143-0.085-0.563-0.338-0.563-0.338s0.386,1.741,0.408,1.885
		c0.023,0.168-0.12,0.274-0.264,0.133c-0.024-0.013-0.803-0.89-0.803-0.89s-0.158,0.384-0.206,0.467
		c-0.035,0.074-0.071,0.133-0.19,0.123c-0.157-0.026-0.815-0.168-0.815-0.168s0.264,0.851,0.287,0.935s0.048,0.203-0.096,0.277
		l-0.098,0.047H99.112L99.112,1.249z"/>
	<path fill="#E8372F" d="M92.691,1.249l-0.143,0.074c0,0,1.488,1.282,1.536,1.331c0.047,0.048,0.144,0.083,0.073,0.312
		c-0.073,0.216-0.18,0.515-0.18,0.515s1.381-0.277,1.524-0.312c0.155-0.035,0.274,0.026,0.274,0.168
		c0,0.144-0.059,1.621-0.059,1.621h0.371c0,0-0.062-1.477-0.062-1.621c0-0.142,0.134-0.203,0.278-0.168
		C96.449,3.204,97.83,3.48,97.83,3.48s-0.109-0.298-0.182-0.515c-0.071-0.229,0.024-0.264,0.072-0.312
		c0.062-0.048,1.549-1.331,1.549-1.331l-0.157-0.074H92.691L92.691,1.249z"/>
	<path fill="#E8372F" d="M92.691,1.249l-0.143,0.074c0,0,1.488,1.282,1.536,1.331c0.047,0.048,0.144,0.083,0.073,0.312
		c-0.073,0.216-0.18,0.515-0.18,0.515s1.381-0.277,1.524-0.312c0.155-0.035,0.274,0.026,0.274,0.168
		c0,0.144-0.059,1.621-0.059,1.621h0.371c0,0-0.062-1.477-0.062-1.621c0-0.142,0.134-0.203,0.278-0.168
		C96.449,3.204,97.83,3.48,97.83,3.48s-0.109-0.298-0.182-0.515c-0.071-0.229,0.024-0.264,0.072-0.312
		c0.062-0.048,1.549-1.331,1.549-1.331l-0.157-0.074H92.691L92.691,1.249z"/>
	<path fill="#E8372F" d="M96.089,4.958c0,0-0.062-1.477-0.062-1.621c0-0.142,0.132-0.203,0.277-0.168
		c0.145,0.035,1.524,0.312,1.524,0.312s-0.109-0.298-0.181-0.515c-0.072-0.229,0.022-0.264,0.071-0.312
		c0.061-0.048,1.55-1.331,1.55-1.331l-0.254-0.12c-0.143-0.074-0.119-0.192-0.094-0.277c0.022-0.083,0.262-0.935,0.262-0.935
		s-0.636,0.142-0.791,0.167c-0.119,0.01-0.157-0.048-0.192-0.122c-0.035-0.084-0.189-0.468-0.189-0.468s-0.792,0.877-0.805,0.89
		c-0.154,0.142-0.3,0.035-0.274-0.133c0.023-0.145,0.405-1.885,0.405-1.885s-0.419,0.251-0.565,0.338
		c-0.132,0.083-0.203,0.057-0.274-0.074c-0.073-0.132-0.589-1.165-0.589-1.165l0,0c0,0-0.515,1.032-0.587,1.165
		c-0.084,0.131-0.158,0.157-0.29,0.073c-0.143-0.085-0.563-0.338-0.563-0.338s0.386,1.741,0.408,1.885
		c0.023,0.168-0.12,0.274-0.264,0.133c-0.024-0.013-0.803-0.89-0.803-0.89s-0.158,0.384-0.206,0.467
		c-0.035,0.074-0.071,0.133-0.19,0.123c-0.157-0.026-0.815-0.168-0.815-0.168s0.264,0.851,0.287,0.935s0.048,0.203-0.096,0.277
		l-0.24,0.12c0,0,1.488,1.283,1.536,1.331c0.047,0.048,0.144,0.083,0.073,0.312c-0.073,0.216-0.18,0.514-0.18,0.514
		s1.381-0.277,1.524-0.312c0.155-0.035,0.274,0.026,0.274,0.167c0,0.144-0.059,1.621-0.059,1.621h0.37V4.958z"/>
	<path fill="#E8372F" d="M96.089,4.958c0,0-0.062-1.477-0.062-1.621c0-0.142,0.132-0.203,0.277-0.168
		c0.145,0.035,1.524,0.312,1.524,0.312s-0.109-0.298-0.181-0.515c-0.072-0.229,0.022-0.264,0.071-0.312
		c0.061-0.048,1.55-1.331,1.55-1.331l-0.254-0.12c-0.143-0.074-0.119-0.192-0.094-0.277c0.022-0.083,0.262-0.935,0.262-0.935
		s-0.636,0.142-0.791,0.167c-0.119,0.01-0.157-0.048-0.192-0.122c-0.035-0.084-0.189-0.468-0.189-0.468s-0.792,0.877-0.805,0.89
		c-0.154,0.142-0.3,0.035-0.274-0.133c0.023-0.145,0.405-1.885,0.405-1.885s-0.419,0.251-0.565,0.338
		c-0.132,0.083-0.203,0.057-0.274-0.074c-0.073-0.132-0.589-1.165-0.589-1.165l0,0c0,0-0.515,1.032-0.587,1.165
		c-0.084,0.131-0.158,0.157-0.29,0.073c-0.143-0.085-0.563-0.338-0.563-0.338s0.386,1.741,0.408,1.885
		c0.023,0.168-0.12,0.274-0.264,0.133c-0.024-0.013-0.803-0.89-0.803-0.89s-0.158,0.384-0.206,0.467
		c-0.035,0.074-0.071,0.133-0.19,0.123c-0.157-0.026-0.815-0.168-0.815-0.168s0.264,0.851,0.287,0.935s0.048,0.203-0.096,0.277
		l-0.24,0.12c0,0,1.488,1.283,1.536,1.331c0.047,0.048,0.144,0.083,0.073,0.312c-0.073,0.216-0.18,0.514-0.18,0.514
		s1.381-0.277,1.524-0.312c0.155-0.035,0.274,0.026,0.274,0.167c0,0.144-0.059,1.621-0.059,1.621h0.37V4.958z"/>
	<path fill="#FF0000" d="M96.089,4.958c0,0-0.062-1.477-0.062-1.621c0-0.142,0.132-0.203,0.277-0.168
		c0.145,0.035,1.524,0.312,1.524,0.312s-0.109-0.298-0.181-0.515c-0.072-0.229,0.022-0.264,0.071-0.312
		c0.061-0.048,1.55-1.331,1.55-1.331l-0.254-0.12c-0.143-0.074-0.119-0.192-0.094-0.277c0.022-0.083,0.262-0.935,0.262-0.935
		s-0.636,0.142-0.791,0.167c-0.119,0.01-0.157-0.048-0.192-0.122c-0.035-0.084-0.189-0.468-0.189-0.468s-0.792,0.877-0.805,0.89
		c-0.154,0.142-0.3,0.035-0.274-0.133c0.023-0.145,0.405-1.885,0.405-1.885s-0.419,0.251-0.565,0.338
		c-0.132,0.083-0.203,0.057-0.274-0.074c-0.073-0.132-0.589-1.165-0.589-1.165l0,0c0,0-0.515,1.032-0.587,1.165
		c-0.084,0.131-0.158,0.157-0.29,0.073c-0.143-0.085-0.563-0.338-0.563-0.338s0.386,1.741,0.408,1.885
		c0.023,0.168-0.12,0.274-0.264,0.133c-0.024-0.013-0.803-0.89-0.803-0.89s-0.158,0.384-0.206,0.467
		c-0.035,0.074-0.071,0.133-0.19,0.123c-0.157-0.026-0.815-0.168-0.815-0.168s0.264,0.851,0.287,0.935s0.048,0.203-0.096,0.277
		l-0.24,0.12c0,0,1.488,1.283,1.536,1.331c0.047,0.048,0.144,0.083,0.073,0.312c-0.073,0.216-0.18,0.514-0.18,0.514
		s1.381-0.277,1.524-0.312c0.155-0.035,0.274,0.026,0.274,0.167c0,0.144-0.059,1.621-0.059,1.621h0.37V4.958z"/>
	<polygon fill="#E8372F" points="104.669,5.629 104.669,-3.129 100.288,-3.129 100.288,5.629 	"/>
	<polygon fill="#E8372F" points="104.669,5.629 104.669,-3.129 100.288,-3.129 100.288,5.629 	"/>
	<polygon fill="#FF0000" points="104.669,5.629 104.669,-3.129 100.288,-3.129 100.288,5.629 	"/>
	<path fill="#231F20" d="M21.065,12.05c0.037,1.824-0.287,2.375-1.416,2.927c-1.031,0.516-3.912,0.938-4.284,1.021
		c-1.165,0.274-4.44,1.103-4.367,4.535c0.072,3.385,3.42,4.535,5.759,4.477c2.269-0.061,3.601-1.031,4.201-1.512
		c0.349-0.291,0.312-0.216,0.613,0.106c0.324,0.374,1.452,1.454,4.057,1.439c2.639-0.013,3.036-1.26,3.192-1.655
		c0.205-0.516-0.348-0.792-0.54-0.322c-0.336,0.78-1.008,0.983-1.463,0.983c-0.515-0.013-2.016-0.132-2.028-3.997
		c0,0,0-7.98,0-8.448c0-2.604-1.979-4.728-7.235-4.728c-5.653,0-5.688,2.785-5.724,3.48c-0.037,0.781,0.372,1.609,1.789,1.609
		c1.284,0,1.583-1.393,1.775-1.922c0.18-0.552,0.228-2.279,2.508-2.244c1.955,0,3.156,1.728,3.156,4.177l0.048,7.379
		c0,2.581-1.332,4.645-3.301,4.645c-2.363-0.014-2.939-1.971-2.963-2.904c-0.025-0.925,0.479-2.867,2.807-4.211
		c0,0,1.093-0.696,3.157-1.488c0.191-0.048,0.275-0.013,0.275,0.433L21.065,12.05L21.065,12.05z"/>
	<path d="M21.065,12.05c0.037,1.824-0.287,2.375-1.416,2.927c-1.031,0.516-3.912,0.938-4.284,1.021
		c-1.165,0.274-4.44,1.103-4.367,4.535c0.072,3.385,3.42,4.535,5.759,4.477c2.269-0.061,3.601-1.031,4.201-1.512
		c0.349-0.291,0.312-0.216,0.613,0.106c0.324,0.374,1.452,1.454,4.057,1.439c2.639-0.013,3.036-1.26,3.192-1.655
		c0.205-0.516-0.348-0.792-0.54-0.322c-0.336,0.78-1.008,0.983-1.463,0.983c-0.515-0.013-2.016-0.132-2.028-3.997
		c0,0,0-7.98,0-8.448c0-2.604-1.979-4.728-7.235-4.728c-5.653,0-5.688,2.785-5.724,3.48c-0.037,0.781,0.372,1.609,1.789,1.609
		c1.284,0,1.583-1.393,1.775-1.922c0.18-0.552,0.228-2.279,2.508-2.244c1.955,0,3.156,1.728,3.156,4.177l0.048,7.379
		c0,2.581-1.332,4.645-3.301,4.645c-2.363-0.014-2.939-1.971-2.963-2.904c-0.025-0.925,0.479-2.867,2.807-4.211
		c0,0,1.093-0.696,3.157-1.488c0.191-0.048,0.275-0.013,0.275,0.433L21.065,12.05L21.065,12.05z"/>
	<path fill="#231F20" d="M59.98,12.05c0.035,1.824-0.287,2.375-1.415,2.927c-1.031,0.516-3.912,0.938-4.283,1.021
		c-1.165,0.274-4.441,1.103-4.369,4.535c0.072,3.385,3.421,4.535,5.771,4.477c2.269-0.061,3.588-1.031,4.188-1.512
		c0.352-0.291,0.312-0.216,0.613,0.106c0.325,0.374,1.452,1.454,4.058,1.439c2.648-0.013,3.047-1.26,3.19-1.655
		c0.203-0.516-0.349-0.792-0.542-0.322c-0.335,0.78-1.005,0.983-1.463,0.983c-0.503-0.013-2.015-0.132-2.015-3.997
		c0,0-0.014-7.98-0.014-8.448c0-2.604-1.978-4.728-7.234-4.728c-5.652,0-5.677,2.785-5.724,3.48
		c-0.035,0.781,0.373,1.609,1.802,1.609c1.271,0,1.583-1.393,1.762-1.922c0.181-0.552,0.229-2.279,2.508-2.244
		c1.958,0,3.157,1.728,3.157,4.177l0.048,7.379c0,2.581-1.331,4.645-3.3,4.645c-2.363-0.014-2.941-1.971-2.963-2.904
		c-0.025-0.925,0.48-2.867,2.82-4.211c0,0,1.08-0.696,3.143-1.488c0.193-0.048,0.277-0.013,0.277,0.433L59.98,12.05L59.98,12.05z"/>
	<path d="M59.98,12.05c0.035,1.824-0.287,2.375-1.415,2.927c-1.031,0.516-3.912,0.938-4.283,1.021
		c-1.165,0.274-4.441,1.103-4.369,4.535c0.072,3.385,3.421,4.535,5.771,4.477c2.269-0.061,3.588-1.031,4.188-1.512
		c0.352-0.291,0.312-0.216,0.613,0.106c0.325,0.374,1.452,1.454,4.058,1.439c2.648-0.013,3.047-1.26,3.19-1.655
		c0.203-0.516-0.349-0.792-0.542-0.322c-0.335,0.78-1.005,0.983-1.463,0.983c-0.503-0.013-2.015-0.132-2.015-3.997
		c0,0-0.014-7.98-0.014-8.448c0-2.604-1.978-4.728-7.234-4.728c-5.652,0-5.677,2.785-5.724,3.48
		c-0.035,0.781,0.373,1.609,1.802,1.609c1.271,0,1.583-1.393,1.762-1.922c0.181-0.552,0.229-2.279,2.508-2.244
		c1.958,0,3.157,1.728,3.157,4.177l0.048,7.379c0,2.581-1.331,4.645-3.3,4.645c-2.363-0.014-2.941-1.971-2.963-2.904
		c-0.025-0.925,0.48-2.867,2.82-4.211c0,0,1.08-0.696,3.143-1.488c0.193-0.048,0.277-0.013,0.277,0.433L59.98,12.05L59.98,12.05z"/>
	<path fill="#231F20" d="M98.393,12.05c0.049,1.824-0.289,2.375-1.404,2.927c-1.032,0.516-3.924,0.938-4.284,1.021
		c-1.164,0.274-4.438,1.103-4.366,4.535c0.071,3.385,3.42,4.535,5.76,4.477c2.269-0.061,3.602-1.031,4.188-1.512
		c0.349-0.291,0.325-0.216,0.612,0.106c0.325,0.374,1.453,1.454,4.056,1.439c2.471-0.013,2.985-1.095,3.168-1.564v-0.549
		c-0.13-0.16-0.389-0.155-0.516,0.136c-0.336,0.78-0.996,0.983-1.464,0.983c-0.503-0.013-2.005-0.132-2.015-3.997
		c0,0,0-7.98,0-8.448c0-2.604-1.992-4.728-7.249-4.728c-5.65,0-5.676,2.785-5.712,3.48c-0.048,0.781,0.371,1.609,1.789,1.609
		c1.283,0,1.583-1.393,1.764-1.922c0.188-0.552,0.229-2.279,2.508-2.244c1.956,0,3.168,1.728,3.168,4.177l0.035,7.379
		c0,2.581-1.331,4.645-3.3,4.645c-2.351-0.014-2.94-1.971-2.963-2.904c-0.025-0.925,0.49-2.867,2.82-4.211
		c0,0,1.08-0.696,3.155-1.488c0.18-0.048,0.265-0.013,0.265,0.433L98.393,12.05L98.393,12.05z"/>
	<path d="M98.393,12.05c0.049,1.824-0.289,2.375-1.404,2.927c-1.032,0.516-3.924,0.938-4.284,1.021
		c-1.164,0.274-4.438,1.103-4.366,4.535c0.071,3.385,3.42,4.535,5.76,4.477c2.269-0.061,3.602-1.031,4.188-1.512
		c0.349-0.291,0.325-0.216,0.612,0.106c0.325,0.374,1.453,1.454,4.056,1.439c2.471-0.013,2.985-1.095,3.168-1.564v-0.549
		c-0.13-0.16-0.389-0.155-0.516,0.136c-0.336,0.78-0.996,0.983-1.464,0.983c-0.503-0.013-2.005-0.132-2.015-3.997
		c0,0,0-7.98,0-8.448c0-2.604-1.992-4.728-7.249-4.728c-5.65,0-5.676,2.785-5.712,3.48c-0.048,0.781,0.371,1.609,1.789,1.609
		c1.283,0,1.583-1.393,1.764-1.922c0.188-0.552,0.229-2.279,2.508-2.244c1.956,0,3.168,1.728,3.168,4.177l0.035,7.379
		c0,2.581-1.331,4.645-3.3,4.645c-2.351-0.014-2.94-1.971-2.963-2.904c-0.025-0.925,0.49-2.867,2.82-4.211
		c0,0,1.08-0.696,3.155-1.488c0.18-0.048,0.265-0.013,0.265,0.433L98.393,12.05L98.393,12.05z"/>
	<path fill="#231F20" d="M43.061,19.862c0,2.9-0.853,3.839-1.836,4.041c-0.911,0.182-0.72,0.614-0.288,0.614
		c0.18,0,7.763,0.013,7.776,0.013c0.635,0,1.079-0.409-0.049-0.675c-0.695-0.154-1.834-0.936-1.847-4.583l-0.013-6.744
		c-0.011-1.608,0.167-5.676-6.169-5.676c-3.239,0-5.136,1.645-5.328,1.789c-0.288,0.226-0.407,0.335-0.54-0.097
		c-0.096-0.335-0.275-0.876-0.372-1.165C34.3,7.104,34.18,6.866,33.567,6.949c-0.612,0.084-4.309,0.671-4.92,0.816
		c-0.625,0.154-0.457,0.418-0.011,0.493c0.443,0.072,2.437,0.239,2.423,3.685c-0.012,3.441-0.012,7.211-0.012,7.211
		c0.025,4.15-0.853,4.534-1.62,4.75c-1.008,0.277-0.54,0.624-0.06,0.624c0.011,0,7.464,0,7.655-0.013
		c0.515,0,0.745-0.466-0.289-0.636c-0.997-0.167-1.943-0.757-1.92-4.02c0-0.325,0-3.948-0.012-4.608
		c-0.025-1.728-0.42-7.166,4.475-7.21c3.42-0.109,3.744,2.746,3.767,4.641L43.061,19.862L43.061,19.862z"/>
	<path d="M43.061,19.862c0,2.9-0.853,3.839-1.836,4.041c-0.911,0.182-0.72,0.614-0.288,0.614c0.18,0,7.763,0.013,7.776,0.013
		c0.635,0,1.079-0.409-0.049-0.675c-0.695-0.154-1.834-0.936-1.847-4.583l-0.013-6.744c-0.011-1.608,0.167-5.676-6.169-5.676
		c-3.239,0-5.136,1.645-5.328,1.789c-0.288,0.226-0.407,0.335-0.54-0.097c-0.096-0.335-0.275-0.876-0.372-1.165
		C34.3,7.104,34.18,6.866,33.567,6.949c-0.612,0.084-4.309,0.671-4.92,0.816c-0.625,0.154-0.457,0.418-0.011,0.493
		c0.443,0.072,2.437,0.239,2.423,3.685c-0.012,3.441-0.012,7.211-0.012,7.211c0.025,4.15-0.853,4.534-1.62,4.75
		c-1.008,0.277-0.54,0.624-0.06,0.624c0.011,0,7.464,0,7.655-0.013c0.515,0,0.745-0.466-0.289-0.636
		c-0.997-0.167-1.943-0.757-1.92-4.02c0-0.325,0-3.948-0.012-4.608c-0.025-1.728-0.42-7.166,4.475-7.21
		c3.42-0.109,3.744,2.746,3.767,4.641L43.061,19.862L43.061,19.862z"/>
</g>
</svg>
