<?xml version="1.0" encoding="utf-8"?>
<!-- Generator: Adobe Illustrator 19.1.0, SVG Export Plug-In . SVG Version: 6.00 Build 0)  -->
<svg version="1.1" id="Layer_1" xmlns="http://www.w3.org/2000/svg" xmlns:xlink="http://www.w3.org/1999/xlink" x="0px" y="0px"
	 width="232px" height="22px" viewBox="-183 290 232 22" style="enable-background:new -183 290 232 22;" xml:space="preserve">
<style type="text/css">
	.st0{fill:#FF0000;}
	.st1{fill:#231F20;}
</style>
<polygon class="st0" points="-183,311.8 -183,290 -172.3,290 -172.3,311.8 "/>
<polygon class="st0" points="-148.7,311.8 -148.7,290 -138,290 -138,311.8 "/>
<path class="st0" d="M-162,294.6l1.5-3.2l1.5,3c0.2,0.3,0.4,0.3,0.7,0.1l1.3-0.7l-0.8,4.2c-0.2,0.8,0.3,1.1,0.8,0.5l1.9-2l0.4,1.1
	c0.2,0.4,0.5,0.3,0.8,0.2l2-0.4l-0.7,2.4v0.1c-0.1,0.3-0.2,0.5,0.2,0.7l0.7,0.4l-4,3.3c-0.4,0.5-0.2,0.6-0.1,1.1l0.4,1.1l-3.7-0.7
	c-0.4-0.2-0.8-0.2-0.8,0.2l0.2,4.2h-1.1l0.1-4.2c0-0.4-0.4-0.4-1.1-0.2l-3.4,0.7l0.4-1.1c0.1-0.4,0.2-0.8-0.1-1.1l-4.1-3.2l0.8-0.4
	c0.2-0.2,0.2-0.4,0.1-0.8l-0.8-2.5l2,0.5c0.5,0.1,0.7,0,0.8-0.3l0.5-1.1l1.9,2.2c0.4,0.4,0.8,0.1,0.7-0.5l-0.9-4.5l1.4,0.8
	C-162.4,294.7-162.1,294.7-162,294.6L-162,294.6L-162,294.6z"/>
<path class="st1" d="M-112.5,298.1c-0.7,0.9-1.8,1.4-2.9,1.4c-2.7-0.1-4.3-2.2-4.3-4.6c0-2.6,1.4-4.8,4.3-4.8c2,0,3.5,0.8,3.8,2.9
	h-1.2c-0.2-1.4-1.3-2-2.6-2c-2.2,0-3.1,1.9-3.1,3.8c0,1.8,1.1,3.5,3.1,3.5c1.8,0,2.9-1.3,2.9-2.9h-2.9v-1h3.9v4.7h-0.8L-112.5,298.1
	L-112.5,298.1z"/>
<path class="st1" d="M-109,296c0-1.6,0.9-2.5,2-2.5c1.1,0,2,0.9,2,2.5c0,1.5-0.9,2.4-2,2.4C-108.1,298.4-109,297.5-109,296L-109,296
	z M-110.2,296c0,1.9,1.1,3.4,3.1,3.4c2.1,0,3.2-1.5,3.2-3.4c0-2-1.1-3.5-3.2-3.5C-109.1,292.6-110.2,294.1-110.2,296L-110.2,296z"/>
<polygon class="st1" points="-99.7,299.2 -100.9,299.2 -103.3,292.7 -102.1,292.7 -100.3,298.1 -100.3,298.1 -98.5,292.7 
	-97.4,292.7 "/>
<path class="st1" d="M-95.6,295.3c0.1-1,0.7-1.8,1.8-1.8c1.1,0,1.8,0.8,1.9,1.8H-95.6L-95.6,295.3z M-91.9,297.1
	c-0.2,0.8-0.8,1.3-1.7,1.3c-1.4,0-2-1-2-2.1h4.8c0.1-1.6-0.6-3.8-2.9-3.8c-1.7,0-3,1.5-3,3.4c0,2,1,3.5,3.1,3.5
	c1.4,0,2.5-0.8,2.8-2.3L-91.9,297.1L-91.9,297.1z"/>
<path class="st1" d="M-89.7,292.7h1.1v1.4l0,0c0.5-1.1,1.2-1.6,2.4-1.6v1.1c-1.7,0-2.4,1-2.4,2.6v2.9h-1.1V292.7L-89.7,292.7z"/>
<path class="st1" d="M-85.5,292.7h1.1v1.1l0,0c0.4-0.8,1.2-1.2,2.1-1.2c1.7,0,2.3,1,2.3,2.4v4.3h-1.1v-4.4c0-0.8-0.4-1.3-1.3-1.3
	c-1.3,0-2,0.8-2,2v3.7h-1.1L-85.5,292.7L-85.5,292.7z"/>
<path class="st1" d="M-78.6,292.7h1v1h0.1c0.5-0.8,1.2-1.1,2-1.1s1.6,0.4,1.8,1.1c0.4-0.7,1.2-1.1,2-1.1c1.3,0,2.2,0.6,2.2,2v4.7
	h-1.1V295c0-0.8-0.2-1.4-1.3-1.4c-1.1,0-1.7,0.7-1.7,1.7v4.1h-1.1V295c0-0.8-0.2-1.4-1.2-1.4c-1.3,0-1.7,1.1-1.7,1.7v4.1h-1.1
	L-78.6,292.7L-78.6,292.7z"/>
<path class="st1" d="M-67.1,295.3c0.1-1,0.8-1.8,1.9-1.8c1.1,0,1.8,0.8,1.9,1.8H-67.1L-67.1,295.3z M-63.4,297.1
	c-0.2,0.8-0.8,1.3-1.7,1.3c-1.4,0-2-1-2-2.1h4.9c0.1-1.6-0.7-3.8-2.9-3.8c-1.8,0-3.1,1.5-3.1,3.4c0.1,2,1.1,3.5,3.2,3.5
	c1.4,0,2.5-0.8,2.8-2.3L-63.4,297.1L-63.4,297.1z"/>
<path class="st1" d="M-61.1,292.7h1v1.1l0,0c0.4-0.8,1.2-1.2,2.1-1.2c1.7,0,2.3,1,2.3,2.4v4.3h-1.1v-4.4c0-0.8-0.5-1.3-1.4-1.3
	c-1.3,0-1.9,0.8-1.9,2v3.7h-1.1L-61.1,292.7L-61.1,292.7z"/>
<path class="st1" d="M-52.7,292.7h1.3v1h-1.3v4c0,0.5,0.1,0.6,0.8,0.6h0.4v1h-0.8c-1.1,0-1.5-0.2-1.5-1.4v-4.1h-1.1v-1h1.1v-1.9h1.1
	L-52.7,292.7L-52.7,292.7z"/>
<path class="st1" d="M-118.6,308.5c0-1.6,0.9-2.4,2-2.4c1.1,0,2,0.8,2,2.4c0,1.6-0.9,2.5-2,2.5C-117.7,310.9-118.6,310-118.6,308.5
	L-118.6,308.5z M-119.7,308.5c0,1.9,1.1,3.4,3.2,3.4c2,0,3.2-1.5,3.2-3.4c0-1.9-1.1-3.4-3.2-3.4
	C-118.6,305.1-119.7,306.6-119.7,308.5L-119.7,308.5z"/>
<path class="st1" d="M-111.7,306.2h-1.1v-1h1.1v-1c0-1.1,0.7-1.6,1.8-1.6c0.2,0,0.5,0.1,0.7,0.1v1c-0.2-0.1-0.4-0.1-0.6-0.1
	c-0.5,0-0.8,0.2-0.8,0.8v0.9h1.3v1h-1.3v5.5h-1.1L-111.7,306.2L-111.7,306.2z"/>
<path class="st1" d="M-98.5,305.5c-0.2-1.3-1.3-1.9-2.5-1.9c-2.2,0-3.1,1.7-3.1,3.6c0,2,0.9,3.8,3.1,3.8c1.6,0,2.5-1.1,2.6-2.6h1.2
	c-0.2,2.3-1.6,3.6-3.8,3.6c-2.8,0-4.1-2-4.1-4.7c0-2.6,1.4-4.7,4.2-4.7c1.9-0.1,3.4,1,3.7,2.9L-98.5,305.5L-98.5,305.5z"/>
<path class="st1" d="M-91.9,309.4c0,0.6-0.6,1.5-2,1.5c-0.6,0-1.2-0.3-1.2-1c0-0.8,0.6-1.1,1.3-1.1c0.8-0.1,1.5-0.1,2-0.5
	L-91.9,309.4L-91.9,309.4z M-90.2,310.9c-0.2,0.1-0.2,0.1-0.4,0.1c-0.3,0-0.3-0.2-0.3-0.8v-3.3c0-1.5-1.3-1.8-2.4-1.8
	c-1.5,0-2.7,0.6-2.8,2.2h1.1c0.1-1,0.8-1.2,1.7-1.2c0.7,0,1.4,0.1,1.4,1.1c0,0.8-1,0.8-2.2,1c-1.1,0.2-2.2,0.5-2.2,2
	c0,1.3,1,1.8,2.1,1.8c0.9,0,1.7-0.3,2.3-1c0,0.7,0.3,1,0.9,1c0.3,0,0.5-0.1,0.8-0.1V310.9L-90.2,310.9z"/>
<path class="st1" d="M-89.2,305.2h1v1.1h0.1c0.5-0.8,1.1-1.2,2.1-1.2c1.7,0,2.2,1,2.2,2.4v4.2h-1.1v-4.4c0-0.8-0.5-1.3-1.3-1.3
	c-1.4,0-2,0.8-2,2v3.6h-1.1L-89.2,305.2L-89.2,305.2z"/>
<path class="st1" d="M-78.3,309.4c0,0.6-0.6,1.5-2,1.5c-0.7,0-1.3-0.3-1.3-1c0-0.8,0.6-1.1,1.3-1.1c0.8-0.1,1.5-0.1,2-0.5V309.4
	L-78.3,309.4z M-76.5,310.9c-0.2,0.1-0.2,0.1-0.3,0.1c-0.4,0-0.4-0.2-0.4-0.8v-3.3c0-1.5-1.3-1.8-2.4-1.8c-1.4,0-2.7,0.6-2.8,2.2
	h1.1c0.1-1,0.8-1.2,1.7-1.2c0.7,0,1.4,0.1,1.4,1.1c0,0.8-1,0.8-2.2,1c-1.1,0.2-2.2,0.5-2.2,2c0,1.3,1,1.8,2.1,1.8
	c0.9,0,1.7-0.3,2.3-1c0,0.7,0.3,1,0.9,1c0.3,0,0.5-0.1,0.8-0.1V310.9L-76.5,310.9z"/>
<path class="st1" d="M-74.8,308.5c0-1.3,0.5-2.5,2-2.5c1.5,0,2,1.1,2,2.4c0,1.2-0.5,2.5-2,2.5C-74.1,310.9-74.8,309.7-74.8,308.5
	L-74.8,308.5z M-69.8,302.8h-1.1v3.4l0,0c-0.5-0.8-1.4-1.1-2.1-1.1c-2,0-3,1.6-3,3.4c0,1.8,1.1,3.4,3,3.4c0.9,0,1.7-0.3,2.1-1l0,0
	v0.8h1.1V302.8L-69.8,302.8z"/>
<path class="st1" d="M-64.1,309.4c0,0.6-0.5,1.5-2,1.5c-0.7,0-1.3-0.3-1.3-1c0-0.8,0.6-1.1,1.4-1.1c0.7-0.1,1.5-0.1,1.9-0.5
	L-64.1,309.4L-64.1,309.4z M-62.4,310.9c-0.2,0.1-0.2,0.1-0.3,0.1c-0.4,0-0.4-0.2-0.4-0.8v-3.3c0-1.5-1.2-1.8-2.4-1.8
	c-1.4,0-2.7,0.6-2.7,2.2h1.1c0-1,0.7-1.2,1.6-1.2c0.7,0,1.4,0.1,1.4,1.1c0,0.8-1,0.8-2.2,1c-1.1,0.2-2.2,0.5-2.2,2
	c0,1.3,1,1.8,2.2,1.8c0.9,0,1.7-0.3,2.3-1c0,0.7,0.4,1,0.9,1c0.4,0,0.6-0.1,0.8-0.1L-62.4,310.9L-62.4,310.9z"/>
<path class="st1" d="M-25.3,298.2c-0.8,0.9-1.9,1.4-2.9,1.4c-2.6,0-4.2-2.2-4.2-4.5c0-2.6,1.4-4.9,4.2-4.9c2,0,3.5,0.9,3.9,2.9h-1.2
	c-0.2-1.4-1.4-2-2.7-2c-2.1,0-3,1.9-3,3.8c0,1.9,1.1,3.5,3,3.5c1.9,0,3-1.3,2.9-2.9h-2.9v-1h3.9v4.7H-25L-25.3,298.2L-25.3,298.2z"
	/>
<path class="st1" d="M-21.9,296.1c0-1.6,0.9-2.5,2-2.5s2,0.9,2,2.5c0,1.6-0.9,2.4-2,2.4S-21.9,297.7-21.9,296.1L-21.9,296.1z
	 M-23.1,296.1c0,1.9,1.1,3.4,3.2,3.4s3.2-1.5,3.2-3.4c0-2-1.1-3.4-3.2-3.4S-23.1,294.1-23.1,296.1L-23.1,296.1z"/>
<path class="st1" d="M-10.1,299.3h-1.1v-1.1l0,0c-0.4,0.8-1.2,1.2-2.1,1.2c-1.7,0-2.3-1-2.3-2.4v-4.2h1.1v4.4c0,0.8,0.4,1.3,1.3,1.3
	c1.3,0,2-0.8,2-2v-3.6h1.1L-10.1,299.3L-10.1,299.3z"/>
<polygon class="st1" points="-5.6,299.3 -6.8,299.3 -9.2,292.9 -8,292.9 -6.2,298.2 -6.2,298.2 -4.4,292.9 -3.3,292.9 "/>
<path class="st1" d="M-1.5,295.4c0.1-1,0.8-1.8,1.8-1.8s1.9,0.8,1.9,1.8H-1.5L-1.5,295.4z M2.2,297.2c-0.2,0.9-0.8,1.3-1.7,1.3
	c-1.4,0-2.1-1-2-2.1h4.8c0.1-1.6-0.6-3.7-2.9-3.7c-1.7,0-3,1.4-3,3.3c0.1,2,1.1,3.5,3.1,3.5c1.4,0,2.5-0.8,2.8-2.3L2.2,297.2
	L2.2,297.2z"/>
<path class="st1" d="M4.3,292.9h1.1v1.4l0,0c0.5-1.1,1.2-1.6,2.4-1.5v1.1c-1.7,0-2.3,1-2.3,2.6v2.9H4.3L4.3,292.9L4.3,292.9z"/>
<path class="st1" d="M8.5,292.9h1.1v1l0,0c0.4-0.8,1.2-1.1,2.1-1.1c1.7,0,2.3,1,2.3,2.3v4.3h-1.1v-4.4c0-0.8-0.5-1.3-1.4-1.3
	c-1.3,0-1.9,0.9-1.9,2v3.7H8.5L8.5,292.9L8.5,292.9z"/>
<path class="st1" d="M16.3,295.4c0.1-1,0.8-1.8,1.9-1.8c1.1,0,1.8,0.8,1.9,1.8H16.3L16.3,295.4z M20,297.2c-0.2,0.9-0.8,1.3-1.7,1.3
	c-1.4,0-2-1-2-2.1h4.9c0.1-1.6-0.7-3.7-2.9-3.7c-1.8,0-3.1,1.4-3.1,3.3c0.1,2,1.1,3.5,3.2,3.5c1.4,0,2.5-0.8,2.8-2.3L20,297.2
	L20,297.2z"/>
<path class="st1" d="M22.3,292.9h1v0.9l0,0c0.5-0.7,1.2-1.1,2.1-1.1c0.8,0,1.5,0.3,1.8,1.1c0.5-0.7,1.2-1.1,2-1.1
	c1.3,0,2.1,0.5,2.1,1.9v4.7h-1.1V295c0-0.8-0.2-1.4-1.2-1.4c-1.1,0-1.7,0.7-1.7,1.7v4.1h-1.1V295c0-0.8-0.3-1.4-1.2-1.4
	c-1.3,0-1.7,1.2-1.7,1.7v4.1h-1.1L22.3,292.9L22.3,292.9z"/>
<path class="st1" d="M33.7,295.4c0.1-1,0.8-1.8,1.9-1.8c1.1,0,1.8,0.8,1.9,1.8H33.7L33.7,295.4z M37.4,297.2
	c-0.1,0.9-0.8,1.3-1.7,1.3c-1.4,0-2-1-2-2.1h4.9c0-1.6-0.7-3.7-2.9-3.7c-1.8,0-3.1,1.4-3.1,3.3c0.1,2,1.1,3.5,3.1,3.5
	c1.5,0,2.5-0.8,2.8-2.3L37.4,297.2L37.4,297.2z"/>
<path class="st1" d="M39.6,292.9h1.1v1l0,0c0.5-0.8,1.2-1.1,2.1-1.1c1.7,0,2.3,1,2.3,2.3v4.3h-1.1v-4.4c0-0.8-0.5-1.3-1.3-1.3
	c-1.3,0-2,0.9-2,2v3.7h-1.1L39.6,292.9L39.6,292.9z"/>
<path class="st1" d="M48.1,292.9h1.3v0.9h-1.3v4.1c0,0.5,0.1,0.5,0.8,0.5h0.5v1h-0.8c-1.1,0-1.6-0.2-1.6-1.4v-4.1h-1.1v-0.9H47v-2
	h1.1V292.9L48.1,292.9z"/>
<path class="st1" d="M-31.4,308.6c0-1.3,0.4-2.5,1.9-2.5c1.5,0,2.1,1.1,2.1,2.4c0,1.3-0.6,2.5-2,2.5
	C-30.8,311-31.4,309.8-31.4,308.6L-31.4,308.6z M-26.4,302.8h-1.1v3.4l0,0c-0.5-0.8-1.4-1.1-2.1-1.1c-2,0-2.9,1.6-2.9,3.4
	c0,1.8,1,3.4,2.9,3.4c0.9,0,1.7-0.3,2.1-1l0,0v0.8h1.1V302.8L-26.4,302.8z"/>
<path class="st1" d="M-19.5,311.8h-1v-1l0,0c-0.4,0.8-1.2,1.1-2.1,1.1c-1.7,0-2.3-1-2.3-2.3v-4.3h1.1v4.4c0,0.8,0.5,1.3,1.4,1.3
	c1.3,0,1.9-0.9,1.9-2v-3.7h1.1L-19.5,311.8L-19.5,311.8z"/>
<path class="st1" d="M-7.9,305.5c-0.2-1.3-1.3-1.9-2.5-1.9c-2.2,0-3.1,1.7-3.1,3.6c0,2,0.9,3.8,3.1,3.8c1.6,0,2.5-1.1,2.6-2.6h1.2
	c-0.2,2.2-1.6,3.5-3.8,3.5c-2.8,0-4.1-2-4.1-4.7c0-2.6,1.4-4.7,4.2-4.7c1.9,0,3.4,1,3.7,2.9H-7.9L-7.9,305.5z"/>
<path class="st1" d="M-1.3,309.5c0,0.6-0.6,1.5-2,1.5c-0.6,0-1.2-0.2-1.2-1c0-0.8,0.6-1.1,1.3-1.1c0.8-0.1,1.5-0.1,2-0.5L-1.3,309.5
	L-1.3,309.5z M0.4,310.9C0.3,311,0.2,311,0.1,311c-0.3,0-0.3-0.2-0.3-0.8V307c0-1.5-1.3-1.8-2.4-1.8c-1.5,0-2.7,0.6-2.8,2.2h1.1
	c0.1-1,0.8-1.2,1.7-1.2c0.7,0,1.4,0.1,1.4,1.1c0,0.8-1,0.7-2.2,1c-1.1,0.2-2.2,0.5-2.2,2c0,1.3,1,1.8,2.1,1.8c0.9,0,1.7-0.3,2.3-1
	c0,0.7,0.3,1,0.9,1c0.3,0,0.5,0,0.8-0.2L0.4,310.9L0.4,310.9z"/>
<path class="st1" d="M1.4,305.3h1v1.1h0.1c0.4-0.8,1.1-1.2,2.1-1.2c1.7,0,2.2,1,2.2,2.4v4.2H5.7v-4.4c0-0.8-0.5-1.3-1.3-1.3
	c-1.4,0-2,0.8-2,2v3.6H1.4L1.4,305.3L1.4,305.3z"/>
<path class="st1" d="M12.4,309.5c0,0.6-0.6,1.5-2,1.5c-0.7,0-1.3-0.2-1.3-1c0-0.8,0.6-1.1,1.3-1.1c0.8-0.1,1.5-0.1,2-0.5V309.5
	L12.4,309.5z M14.1,310.9c-0.2,0.1-0.2,0.1-0.3,0.1c-0.4,0-0.4-0.2-0.4-0.8V307c0-1.5-1.3-1.8-2.4-1.8c-1.4,0-2.7,0.6-2.8,2.2h1.1
	c0.1-1,0.8-1.2,1.7-1.2c0.7,0,1.4,0.1,1.4,1.1c0,0.8-1,0.7-2.2,1c-1.1,0.2-2.2,0.5-2.2,2c0,1.3,1,1.8,2.1,1.8c0.9,0,1.7-0.3,2.3-1
	c0,0.7,0.3,1,0.9,1c0.3,0,0.5,0,0.8-0.2L14.1,310.9L14.1,310.9z"/>
<path class="st1" d="M15.8,308.6c0-1.3,0.5-2.5,2-2.5c1.5,0,2,1.1,2,2.4c0,1.3-0.5,2.5-2,2.5C16.5,311,15.8,309.8,15.8,308.6
	L15.8,308.6z M20.9,302.8h-1.1v3.4l0,0c-0.5-0.8-1.4-1.1-2.1-1.1c-2,0-3,1.6-3,3.4c0,1.8,1.1,3.4,3,3.4c0.9,0,1.7-0.3,2.1-1l0,0v0.8
	h1.1V302.8L20.9,302.8z"/>
<path class="st1" d="M26.5,309.5c0,0.6-0.5,1.5-2,1.5c-0.7,0-1.3-0.2-1.3-1c0-0.8,0.6-1.1,1.4-1.1c0.7-0.1,1.5-0.1,1.9-0.5
	L26.5,309.5L26.5,309.5z M28.2,310.9c-0.2,0.1-0.2,0.1-0.3,0.1c-0.4,0-0.4-0.2-0.4-0.8V307c0-1.5-1.2-1.8-2.4-1.8
	c-1.4,0-2.7,0.6-2.7,2.2h1.1c0-1,0.7-1.2,1.6-1.2c0.7,0,1.4,0.1,1.4,1.1c0,0.8-1,0.7-2.2,1c-1.1,0.2-2.2,0.5-2.2,2
	c0,1.3,1,1.8,2.2,1.8c0.9,0,1.7-0.3,2.3-1c0,0.7,0.4,1,0.9,1c0.4,0,0.6,0,0.8-0.2L28.2,310.9L28.2,310.9z"/>
</svg>
