<?xml version="1.0" encoding="utf-8"?>
<!-- Generator: Adobe Illustrator 15.1.0, SVG Export Plug-In  -->
<!DOCTYPE svg PUBLIC "-//W3C//DTD SVG 1.1//EN" "http://www.w3.org/Graphics/SVG/1.1/DTD/svg11.dtd" [
	<!ENTITY ns_flows "http://ns.adobe.com/Flows/1.0/">
]>
<svg version="1.1"
	 xmlns="http://www.w3.org/2000/svg" xmlns:xlink="http://www.w3.org/1999/xlink" xmlns:a="http://ns.adobe.com/AdobeSVGViewerExtensions/3.0/"
	 x="0px" y="0px" width="231px" height="22px" viewBox="0 0 231 22" overflow="visible" enable-background="new 0 0 231 22"
	 xml:space="preserve">
<defs>
</defs>
<polygon fill-rule="evenodd" clip-rule="evenodd" fill="#EF3E42" points="0,21.553 0,0 10.59,0 10.59,21.553 0,21.553 "/>
<polygon fill-rule="evenodd" clip-rule="evenodd" fill="#EF3E42" points="34.08,21.553 34.08,0 44.673,0 44.673,21.553 
	34.08,21.553 "/>
<path fill-rule="evenodd" clip-rule="evenodd" fill="#EF3E42" d="M20.881,4.475l1.492-3.058l1.492,2.908
	c0.223,0.373,0.371,0.299,0.67,0.149l1.268-0.597l-0.82,4.102c-0.223,0.82,0.299,1.044,0.746,0.522l1.865-1.939l0.521,1.118
	c0.148,0.299,0.371,0.225,0.672,0.225l1.938-0.448l-0.67,2.387v0.075c-0.076,0.298-0.225,0.597,0.148,0.746l0.672,0.297
	l-3.953,3.356c-0.373,0.373-0.225,0.522-0.076,0.97l0.375,1.118l-3.656-0.671c-0.447-0.074-0.744-0.074-0.818,0.299l0.148,4.176
	H21.85L22,16.034c0-0.447-0.373-0.447-1.045-0.299l-3.43,0.671l0.447-1.118c0.148-0.373,0.223-0.671-0.148-0.97l-4.027-3.281
	l0.746-0.447c0.223-0.149,0.223-0.373,0.148-0.671l-0.746-2.462l1.939,0.374c0.521,0.148,0.67,0,0.82-0.299l0.521-1.044l1.865,2.088
	c0.373,0.447,0.82,0.149,0.67-0.373l-0.895-4.549l1.416,0.82c0.225,0.149,0.449,0.224,0.598-0.075V4.475L20.881,4.475z"/>
<path fill-rule="evenodd" clip-rule="evenodd" fill="#231F20" d="M70.25,8.203c-0.746,0.97-1.865,1.343-2.908,1.343
	c-2.611,0-4.176-2.163-4.176-4.475c0-2.61,1.416-4.848,4.176-4.848c1.939,0,3.504,0.895,3.877,2.983h-1.193
	c-0.223-1.343-1.342-1.939-2.684-1.939c-2.088,0-2.982,1.865-2.982,3.729c0,1.864,1.043,3.58,2.982,3.58
	c1.863,0,2.982-1.268,2.908-2.908h-2.834v-0.97h3.877v4.623h-0.744L70.25,8.203L70.25,8.203z"/>
<path fill-rule="evenodd" clip-rule="evenodd" fill="#231F20" d="M73.605,6.115c0-1.565,0.895-2.386,2.014-2.386
	s2.014,0.82,2.014,2.386s-0.895,2.461-2.014,2.461S73.605,7.681,73.605,6.115L73.605,6.115z M72.486,6.115
	c0,1.864,1.119,3.356,3.133,3.356s3.133-1.492,3.133-3.356s-1.119-3.356-3.133-3.356S72.486,4.251,72.486,6.115L72.486,6.115z"/>
<path fill-rule="evenodd" clip-rule="evenodd" fill="#231F20" d="M85.314,9.321H84.27V8.353l0,0
	c-0.447,0.745-1.191,1.119-2.088,1.119c-1.715,0-2.236-0.97-2.236-2.312V2.908h1.119v4.326c0,0.82,0.445,1.342,1.266,1.342
	c1.27,0,1.939-0.896,1.939-2.014V2.908h1.045V9.321L85.314,9.321z"/>
<polygon fill-rule="evenodd" clip-rule="evenodd" fill="#231F20" points="89.789,9.321 88.67,9.321 86.283,2.908 87.477,2.908 
	89.268,8.277 89.268,8.277 91.057,2.908 92.1,2.908 89.789,9.321 "/>
<path fill-rule="evenodd" clip-rule="evenodd" fill="#231F20" d="M93.891,5.519c0.074-0.969,0.746-1.789,1.791-1.789
	c1.043,0,1.861,0.745,1.861,1.789H93.891L93.891,5.519z M97.543,7.309c-0.221,0.82-0.818,1.268-1.641,1.268
	c-1.416,0-2.086-1.044-2.012-2.162h4.771c0.076-1.492-0.596-3.655-2.908-3.655c-1.713,0-2.982,1.417-2.982,3.356
	c0.074,1.939,1.045,3.356,3.059,3.356c1.416,0,2.461-0.746,2.758-2.163H97.543L97.543,7.309z"/>
<path fill-rule="evenodd" clip-rule="evenodd" fill="#231F20" d="M99.707,2.908h1.045v1.343l0,0
	c0.521-1.044,1.191-1.492,2.385-1.492v1.119c-1.715,0-2.312,0.97-2.312,2.61v2.833h-1.117V2.908L99.707,2.908z"/>
<path fill-rule="evenodd" clip-rule="evenodd" fill="#231F20" d="M103.885,2.908h1.043v1.045l0,0
	c0.447-0.82,1.193-1.194,2.088-1.194c1.716,0,2.239,0.971,2.239,2.387v4.176h-1.045V4.996c0-0.82-0.521-1.267-1.345-1.267
	c-1.266,0-1.863,0.82-1.863,2.013v3.579h-1.117V2.908L103.885,2.908z"/>
<path fill-rule="evenodd" clip-rule="evenodd" fill="#231F20" d="M111.565,5.519c0.076-0.969,0.746-1.789,1.863-1.789
	c1.045,0,1.791,0.745,1.865,1.789H111.565L111.565,5.519z M115.294,7.309c-0.225,0.82-0.82,1.268-1.715,1.268
	c-1.416,0-2.014-1.044-2.014-2.162h4.848c0.074-1.492-0.672-3.655-2.908-3.655c-1.789,0-3.057,1.417-3.057,3.356
	c0.074,1.939,1.043,3.356,3.131,3.356c1.418,0,2.463-0.746,2.76-2.163H115.294L115.294,7.309z"/>
<path fill-rule="evenodd" clip-rule="evenodd" fill="#231F20" d="M117.532,2.908h0.969v0.97l0,0
	c0.521-0.745,1.193-1.119,2.088-1.119c0.82,0,1.492,0.299,1.791,1.119c0.445-0.671,1.193-1.119,2.012-1.119
	c1.27,0,2.09,0.522,2.09,1.865v4.697h-1.045V5.146c0-0.82-0.223-1.416-1.191-1.416c-1.045,0-1.717,0.596-1.717,1.641v3.951h-1.043
	V5.146c0-0.82-0.301-1.416-1.193-1.416c-1.27,0-1.717,1.118-1.717,1.641v3.951h-1.043V2.908L117.532,2.908z"/>
<path fill-rule="evenodd" clip-rule="evenodd" fill="#231F20" d="M128.866,5.519c0.076-0.969,0.746-1.789,1.865-1.789
	c1.045,0,1.791,0.745,1.863,1.789H128.866L128.866,5.519z M132.522,7.309c-0.15,0.82-0.746,1.268-1.641,1.268
	c-1.418,0-2.016-1.044-2.016-2.162h4.848c0-1.492-0.67-3.655-2.906-3.655c-1.791,0-3.059,1.417-3.059,3.356
	c0.074,1.939,1.043,3.356,3.059,3.356c1.49,0,2.459-0.746,2.758-2.163H132.522L132.522,7.309z"/>
<path fill-rule="evenodd" clip-rule="evenodd" fill="#231F20" d="M134.757,2.908h1.047v1.045l0,0
	c0.447-0.82,1.191-1.194,2.088-1.194c1.715,0,2.236,0.971,2.236,2.387v4.176h-1.117V4.996c0-0.82-0.447-1.267-1.27-1.267
	c-1.268,0-1.938,0.82-1.938,2.013v3.579h-1.047V2.908L134.757,2.908z"/>
<path fill-rule="evenodd" clip-rule="evenodd" fill="#231F20" d="M143.185,2.908h1.27v0.97h-1.27v3.953
	c0,0.521,0.076,0.596,0.748,0.596h0.521v0.895h-0.822c-1.117,0-1.564-0.224-1.564-1.416V3.878h-1.045v-0.97h1.045V0.97h1.117V2.908
	L143.185,2.908z"/>
<path fill-rule="evenodd" clip-rule="evenodd" fill="#231F20" d="M64.209,18.644c0-1.268,0.447-2.535,1.865-2.535
	c1.49,0,2.088,1.193,2.088,2.461c0,1.193-0.598,2.387-2.014,2.387C64.807,20.956,64.209,19.837,64.209,18.644L64.209,18.644z
	 M69.131,12.901h-1.043v3.281l0,0c-0.523-0.745-1.416-0.969-2.088-0.969c-1.939,0-2.91,1.49-2.91,3.355
	c0,1.79,0.971,3.355,2.91,3.355c0.895,0,1.715-0.298,2.088-1.044l0,0v0.896h1.043V12.901L69.131,12.901z"/>
<path fill-rule="evenodd" clip-rule="evenodd" fill="#231F20" d="M76.066,21.776h-0.969v-1.044l0,0
	c-0.447,0.82-1.193,1.192-2.088,1.192c-1.717,0-2.238-0.969-2.238-2.386v-4.177h1.045v4.325c0,0.821,0.521,1.269,1.342,1.269
	c1.268,0,1.865-0.82,1.865-2.014v-3.58h1.043V21.776L76.066,21.776z"/>
<path fill-rule="evenodd" clip-rule="evenodd" fill="#231F20" d="M87.551,15.587c-0.223-1.269-1.268-1.94-2.461-1.94
	c-2.162,0-3.057,1.791-3.057,3.655c0,2.014,0.895,3.654,3.057,3.654c1.566,0,2.461-1.044,2.537-2.536h1.191
	C88.596,20.657,87.254,22,85.016,22c-2.76,0-4.102-2.088-4.102-4.624c0-2.61,1.416-4.698,4.176-4.698
	c1.865,0,3.357,0.969,3.654,2.909H87.551L87.551,15.587z"/>
<path fill-rule="evenodd" clip-rule="evenodd" fill="#231F20" d="M94.113,19.539c0,0.597-0.596,1.417-2.014,1.417
	c-0.596,0-1.191-0.224-1.191-0.896c0-0.82,0.596-1.044,1.268-1.192c0.746-0.075,1.49-0.149,1.938-0.448V19.539L94.113,19.539z
	 M95.83,20.956c-0.148,0-0.225,0-0.373,0c-0.299,0-0.299-0.224-0.299-0.672v-3.355c0-1.491-1.268-1.715-2.387-1.715
	c-1.49,0-2.684,0.521-2.76,2.162h1.045c0.074-0.97,0.746-1.268,1.641-1.268c0.672,0,1.416,0.149,1.416,1.119
	c0,0.745-0.969,0.671-2.162,0.895c-1.119,0.224-2.162,0.521-2.162,2.014c0,1.268,0.969,1.789,2.088,1.789
	c0.895,0,1.715-0.298,2.312-0.969c0,0.671,0.297,0.969,0.895,0.969c0.297,0,0.521-0.074,0.746-0.148V20.956L95.83,20.956z"/>
<path fill-rule="evenodd" clip-rule="evenodd" fill="#231F20" d="M96.799,15.362h0.969v0.97h0.076
	c0.447-0.745,1.119-1.118,2.088-1.118c1.641,0,2.162,0.969,2.162,2.311v4.252h-1.045v-4.325c0-0.82-0.521-1.343-1.268-1.343
	c-1.342,0-1.938,0.895-1.938,2.014v3.654h-1.045V15.362L96.799,15.362z"/>
<path fill-rule="evenodd" clip-rule="evenodd" fill="#231F20" d="M107.688,19.539c0,0.597-0.599,1.417-1.94,1.417
	c-0.672,0-1.268-0.224-1.268-0.896c0-0.82,0.596-1.044,1.268-1.192c0.746-0.075,1.493-0.149,1.94-0.448V19.539L107.688,19.539z
	 M109.403,20.956c-0.148,0-0.225,0-0.299,0c-0.373,0-0.373-0.224-0.373-0.672v-3.355c0-1.491-1.268-1.715-2.388-1.715
	c-1.416,0-2.684,0.521-2.76,2.162h1.045c0.074-0.97,0.746-1.268,1.641-1.268c0.672,0,1.419,0.149,1.419,1.119
	c0,0.745-0.972,0.671-2.163,0.895c-1.119,0.224-2.164,0.521-2.164,2.014c0,1.268,0.969,1.789,2.088,1.789
	c0.895,0,1.718-0.298,2.313-0.969c0,0.671,0.297,0.969,0.895,0.969c0.299,0,0.521-0.074,0.746-0.148V20.956L109.403,20.956z"/>
<path fill-rule="evenodd" clip-rule="evenodd" fill="#231F20" d="M111.118,18.644c0-1.268,0.523-2.535,1.939-2.535
	c1.49,0,2.012,1.193,2.012,2.461c0,1.193-0.521,2.387-1.938,2.387C111.788,20.956,111.118,19.837,111.118,18.644L111.118,18.644z
	 M116.114,12.901h-1.045v3.281l0,0c-0.521-0.745-1.416-0.969-2.088-0.969c-2.012,0-2.982,1.49-2.982,3.355
	c0,1.79,1.045,3.355,2.982,3.355c0.896,0,1.717-0.298,2.088-1.044l0,0v0.896h1.045V12.901L116.114,12.901z"/>
<path fill-rule="evenodd" clip-rule="evenodd" fill="#231F20" d="M121.708,19.539c0,0.597-0.523,1.417-1.939,1.417
	c-0.67,0-1.268-0.224-1.268-0.896c0-0.82,0.598-1.044,1.344-1.192c0.67-0.075,1.49-0.149,1.863-0.448V19.539L121.708,19.539z
	 M123.423,20.956c-0.15,0-0.223,0-0.297,0c-0.375,0-0.375-0.224-0.375-0.672v-3.355c0-1.491-1.191-1.715-2.385-1.715
	c-1.418,0-2.684,0.521-2.684,2.162h1.043c0-0.97,0.67-1.268,1.566-1.268c0.672,0,1.416,0.149,1.416,1.119
	c0,0.745-0.969,0.671-2.164,0.895c-1.043,0.224-2.162,0.521-2.162,2.014c0,1.268,0.969,1.789,2.162,1.789
	c0.896,0,1.641-0.298,2.238-0.969c0,0.671,0.373,0.969,0.896,0.969c0.371,0,0.594-0.074,0.744-0.148V20.956L123.423,20.956z"/>
<path fill-rule="evenodd" clip-rule="evenodd" fill="#231F20" d="M170.63,8.203c-0.672,0.97-1.791,1.343-2.834,1.343
	c-2.611,0-4.252-2.163-4.252-4.475c0-2.61,1.418-4.848,4.252-4.848c1.939,0,3.506,0.895,3.803,2.983h-1.193
	c-0.223-1.343-1.268-1.939-2.609-1.939c-2.164,0-3.057,1.865-3.057,3.729c0,1.864,1.117,3.58,3.057,3.58
	c1.865,0,2.908-1.342,2.834-2.908h-2.834V4.624h3.877v4.697h-0.744L170.63,8.203L170.63,8.203z"/>
<path fill-rule="evenodd" clip-rule="evenodd" fill="#231F20" d="M174.06,6.115c0-1.565,0.895-2.461,2.014-2.461
	c1.043,0,1.939,0.896,1.939,2.461s-0.896,2.461-1.939,2.461C174.954,8.576,174.06,7.681,174.06,6.115L174.06,6.115z M172.942,6.115
	c0,1.864,1.043,3.356,3.131,3.356c2.014,0,3.059-1.492,3.059-3.356s-1.045-3.356-3.059-3.356
	C173.985,2.759,172.942,4.251,172.942,6.115L172.942,6.115z"/>
<polygon fill-rule="evenodd" clip-rule="evenodd" fill="#231F20" points="183.308,9.321 182.188,9.321 179.802,2.908 180.995,2.908 
	182.786,8.277 182.786,8.277 184.575,2.908 185.62,2.908 183.308,9.321 "/>
<path fill-rule="evenodd" clip-rule="evenodd" fill="#231F20" d="M187.407,5.519c0.076-0.969,0.748-1.864,1.791-1.864
	c1.045,0,1.865,0.82,1.865,1.864H187.407L187.407,5.519z M191.063,7.309c-0.225,0.82-0.82,1.268-1.641,1.268
	c-1.418,0-2.088-1.044-2.016-2.162h4.775c0.074-1.566-0.598-3.655-2.91-3.655c-1.715,0-2.98,1.417-2.98,3.356
	c0.072,1.939,1.043,3.356,3.057,3.356c1.416,0,2.459-0.746,2.76-2.163H191.063L191.063,7.309z"/>
<path fill-rule="evenodd" clip-rule="evenodd" fill="#231F20" d="M193.226,2.908h1.045v1.343l0,0
	c0.521-1.044,1.193-1.566,2.387-1.492v1.119c-1.715,0-2.312,0.97-2.312,2.61v2.833h-1.119V2.908L193.226,2.908z"/>
<path fill-rule="evenodd" clip-rule="evenodd" fill="#231F20" d="M197.401,2.908h1.045v1.045l0,0c0.449-0.82,1.193-1.194,2.09-1.194
	c1.713,0,2.234,0.971,2.234,2.312v4.25h-1.043V4.996c0-0.82-0.523-1.342-1.342-1.342c-1.27,0-1.865,0.896-1.865,2.014v3.653h-1.119
	V2.908L197.401,2.908z"/>
<path fill-rule="evenodd" clip-rule="evenodd" fill="#231F20" d="M204.339,2.908h0.969v0.97h0.074
	c0.447-0.745,1.193-1.119,2.088-1.119c0.746,0,1.492,0.299,1.715,1.119c0.447-0.745,1.195-1.119,2.014-1.119
	c1.268,0,2.162,0.522,2.162,1.865v4.697h-1.043V5.146c0-0.82-0.225-1.491-1.27-1.491c-1.043,0-1.641,0.671-1.641,1.641v4.026h-1.117
	V5.146c0-0.895-0.223-1.491-1.191-1.491c-1.27,0-1.717,1.193-1.717,1.641v4.026h-1.043V2.908L204.339,2.908z"/>
<path fill-rule="evenodd" clip-rule="evenodd" fill="#231F20" d="M215.749,5.519c0.074-0.969,0.67-1.864,1.789-1.864
	c1.045,0,1.789,0.82,1.863,1.864H215.749L215.749,5.519z M219.401,7.309c-0.223,0.82-0.818,1.268-1.715,1.268
	c-1.342,0-2.014-1.044-1.938-2.162h4.771c0.074-1.566-0.598-3.655-2.91-3.655c-1.713,0-2.98,1.417-2.98,3.356
	s0.969,3.356,3.057,3.356c1.418,0,2.461-0.746,2.76-2.163H219.401L219.401,7.309z"/>
<path fill-rule="evenodd" clip-rule="evenodd" fill="#231F20" d="M221.64,2.908h0.969v1.045l0,0c0.447-0.82,1.193-1.194,2.088-1.194
	c1.715,0,2.236,0.971,2.236,2.312v4.25h-1.043V4.996c0-0.82-0.521-1.342-1.342-1.342c-1.268,0-1.865,0.896-1.865,2.014v3.653h-1.043
	V2.908L221.64,2.908z"/>
<path fill-rule="evenodd" clip-rule="evenodd" fill="#231F20" d="M229.991,2.908h1.268v0.896h-1.268v4.027
	c0,0.446,0.15,0.596,0.82,0.596h0.447v0.895h-0.82c-1.043,0-1.49-0.224-1.49-1.416V3.804h-1.119V2.908h1.119V0.97h1.043V2.908
	L229.991,2.908z"/>
<path fill-rule="evenodd" clip-rule="evenodd" fill="#231F20" d="M164.589,18.569c0-1.566,0.895-2.461,2.014-2.461
	c1.117,0,2.014,0.895,2.014,2.461s-0.896,2.387-2.014,2.387C165.483,20.956,164.589,20.136,164.589,18.569L164.589,18.569z
	 M163.47,18.569c0,1.864,1.119,3.355,3.133,3.355s3.133-1.491,3.133-3.355c0-1.938-1.119-3.355-3.133-3.355
	S163.47,16.631,163.47,18.569L163.47,18.569z"/>
<path fill-rule="evenodd" clip-rule="evenodd" fill="#231F20" d="M171.376,16.258h-1.045v-0.896h1.045v-0.969
	c0-1.044,0.67-1.641,1.789-1.641c0.225,0,0.521,0.074,0.67,0.148v0.896c-0.148-0.075-0.371-0.075-0.596-0.075
	c-0.447,0-0.744,0.149-0.744,0.746v0.895h1.191v0.896h-1.191v5.519h-1.119V16.258L171.376,16.258z"/>
<path fill-rule="evenodd" clip-rule="evenodd" fill="#231F20" d="M184.501,15.587c-0.225-1.269-1.268-1.94-2.463-1.94
	c-2.086,0-2.98,1.791-2.98,3.581c0,2.088,0.895,3.729,2.98,3.729c1.566,0,2.463-1.044,2.537-2.536h1.191
	c-0.223,2.237-1.564,3.58-3.803,3.58c-2.76,0-4.1-2.088-4.1-4.624c0-2.61,1.416-4.698,4.174-4.698c1.865,0,3.357,0.969,3.656,2.909
	H184.501L184.501,15.587z"/>
<path fill-rule="evenodd" clip-rule="evenodd" fill="#231F20" d="M191.063,19.539c0,0.597-0.598,1.417-1.939,1.417
	c-0.67,0-1.268-0.224-1.268-0.896c0-0.82,0.598-1.044,1.268-1.192c0.746-0.149,1.492-0.149,1.939-0.448V19.539L191.063,19.539z
	 M192.778,20.881c-0.148,0.075-0.225,0.075-0.299,0.075c-0.371,0-0.371-0.224-0.371-0.672v-3.355c0-1.491-1.27-1.715-2.389-1.715
	c-1.416,0-2.684,0.521-2.758,2.088h1.043c0.074-0.896,0.746-1.193,1.641-1.193c0.672,0,1.418,0.149,1.418,1.044
	c0,0.82-0.969,0.746-2.162,0.97c-1.119,0.224-2.162,0.521-2.162,2.014c0,1.268,0.969,1.789,2.086,1.789
	c0.895,0,1.717-0.298,2.312-1.044c0,0.746,0.299,1.044,0.895,1.044c0.297,0,0.521-0.074,0.746-0.224V20.881L192.778,20.881z"/>
<path fill-rule="evenodd" clip-rule="evenodd" fill="#231F20" d="M193.749,15.362h0.969v0.97h0.074
	c0.447-0.745,1.119-1.118,2.088-1.118c1.641,0,2.162,0.969,2.162,2.311v4.252h-1.043v-4.4c0-0.745-0.447-1.268-1.27-1.268
	c-1.266,0-1.938,0.895-1.938,2.014v3.654h-1.043V15.362L193.749,15.362z"/>
<path fill-rule="evenodd" clip-rule="evenodd" fill="#231F20" d="M204.636,19.539c0,0.597-0.598,1.417-1.938,1.417
	c-0.672,0-1.27-0.224-1.27-0.896c0-0.82,0.598-1.044,1.27-1.192c0.744-0.149,1.564-0.149,1.938-0.448V19.539L204.636,19.539z
	 M206.351,20.881c-0.148,0.075-0.225,0.075-0.299,0.075c-0.373,0-0.373-0.224-0.373-0.672v-3.355c0-1.491-1.268-1.715-2.387-1.715
	c-1.416,0-2.684,0.521-2.756,2.088h1.115c0-0.896,0.672-1.193,1.568-1.193c0.67,0,1.416,0.149,1.416,1.044
	c0,0.82-0.969,0.746-2.162,0.97c-1.045,0.224-2.162,0.521-2.162,2.014c0,1.268,0.969,1.789,2.162,1.789
	c0.895,0,1.641-0.298,2.236-1.044c0,0.746,0.373,1.044,0.895,1.044c0.299,0,0.598-0.074,0.746-0.224V20.881L206.351,20.881z"/>
<path fill-rule="evenodd" clip-rule="evenodd" fill="#231F20" d="M208.142,18.569c0-1.193,0.447-2.461,1.863-2.461
	c1.492,0,2.088,1.193,2.088,2.461c0,1.193-0.596,2.387-2.014,2.387C208.739,20.956,208.142,19.837,208.142,18.569L208.142,18.569z
	 M213.063,12.901h-1.043v3.281l0,0c-0.523-0.745-1.418-0.969-2.09-0.969c-1.939,0-2.908,1.49-2.908,3.281
	c0,1.864,0.969,3.43,2.908,3.43c0.895,0,1.715-0.298,2.09-1.044l0,0v0.896h1.043V12.901L213.063,12.901z"/>
<path fill-rule="evenodd" clip-rule="evenodd" fill="#231F20" d="M218.655,19.539c0,0.597-0.521,1.417-1.938,1.417
	c-0.672,0-1.27-0.224-1.27-0.896c0-0.82,0.598-1.044,1.344-1.192c0.672-0.149,1.49-0.149,1.863-0.448V19.539L218.655,19.539z
	 M220.37,20.881c-0.074,0.075-0.223,0.075-0.297,0.075c-0.299,0-0.299-0.224-0.299-0.672v-3.355c0-1.491-1.268-1.715-2.461-1.715
	c-1.416,0-2.609,0.521-2.684,2.088h1.043c0.076-0.896,0.672-1.193,1.566-1.193c0.672,0,1.49,0.149,1.49,1.044
	c0,0.82-1.043,0.746-2.162,0.97s-2.238,0.521-2.238,2.014c0,1.268,0.973,1.789,2.164,1.789c0.896,0,1.641-0.298,2.236-1.044
	c0,0.746,0.375,1.044,0.896,1.044c0.373,0,0.598-0.074,0.744-0.224V20.881L220.37,20.881z"/>
</svg>
